<svg id="Layer_1" data-name="Layer 1" xmlns="http://www.w3.org/2000/svg" xmlns:xlink="http://www.w3.org/1999/xlink" viewBox="0 0 581.62 201.74"><defs><style>.cls-1{fill:none;}.cls-2{clip-path:url(#clip-path);}.cls-3{fill:#ffc35a;}.cls-4{fill:#c89132;}.cls-5{fill:#c69031;}.cls-6{fill:#fdc25d;}</style><clipPath id="clip-path"><rect class="cls-1" x="34.43" y="32.91" width="175.15" height="135.93"/></clipPath></defs><g class="cls-2"><path class="cls-3" d="M149.75,123.66,165,86.34l-13.39-19.4L139.1,97.7l10.65,26m31.61-6.77L167.88,97.82,153.59,133l10.63,25.88ZM135.44,88.78l15.11-36.66L137.09,33,124.81,62.89Z"/><polyline class="cls-4" points="77.81 86.34 111.46 168.78 132.57 168.78 91.19 66.94 77.81 86.34"/><polyline class="cls-4" points="61.45 116.89 79.92 162.21 34.44 168.78 103.72 168.78 74.9 97.82 61.45 116.89"/><polyline class="cls-4" points="158.39 161.38 105.7 32.98 92.23 52.12 140.31 168.78 209.59 168.78 158.39 161.38"/></g><path class="cls-5" d="M245.31,139.18l1.49,5.44-1.44.51-.72-2a9.26,9.26,0,0,0-.75-1.33,2.22,2.22,0,0,0-2.09-1c-1.05,0-1.9.68-2.57,2a12.36,12.36,0,0,0-1,5.35,11.75,11.75,0,0,0,1,5.21,2.9,2.9,0,0,0,2.62,1.91,2.6,2.6,0,0,0,2.4-1.2,15.25,15.25,0,0,0,.95-1.73l.21-.65c.09-.26.17-.58.27-1l1.47.58a13.65,13.65,0,0,1-.53,1.86,5.44,5.44,0,0,1-.4.83c-.18.33-.48.79-.88,1.4-.67,1.1-1.92,1.64-3.73,1.64a5.22,5.22,0,0,1-4.42-2.41,10.34,10.34,0,0,1-1.72-6.18,12.25,12.25,0,0,1,1.74-6.71,5,5,0,0,1,4.3-2.73,3.06,3.06,0,0,1,1.43.26l.52.29.17.07.29.08c.24,0,.39-.2.43-.6Z"/><path class="cls-5" d="M269.25,139a5.19,5.19,0,0,1,4.46,2.46,11.4,11.4,0,0,1,1.7,6.56,11.53,11.53,0,0,1-1.66,6.56,5.16,5.16,0,0,1-4.5,2.47,5.23,5.23,0,0,1-4.51-2.44,13.8,13.8,0,0,1,0-13.16A5.19,5.19,0,0,1,269.25,139Zm-3.4,9q0,7.42,3.4,7.42t3.34-7.42c0-4.92-1.11-7.39-3.34-7.39S265.85,143.14,265.85,148.06Z"/><path class="cls-5" d="M291.54,155.43h1.15a3.47,3.47,0,0,0,.73-.3c.33-.17.5-.72.5-1.65V142.7a3.7,3.7,0,0,0-.14-1.16,1.09,1.09,0,0,0-.58-.6,1.49,1.49,0,0,0-.51-.17l-.86-.05h-.29v-1.33h5.35l6,12.06v-9.38c0-.54-.16-.89-.46-1a3.56,3.56,0,0,0-.78-.31H300.5v-1.33h6.4v1.33h-.39a2.49,2.49,0,0,0-1.61.37,2.25,2.25,0,0,0-.41,1.6v14.06h-1.75l-7.18-14.51V154.1a1.43,1.43,0,0,0,.17.71,1,1,0,0,0,.46.45l.57.17h1.18v1.32h-6.4Z"/><path class="cls-5" d="M321.66,151.1a18.08,18.08,0,0,0,1.17,2.33,4.25,4.25,0,0,0,1.47,1.31,3.91,3.91,0,0,0,2.05.59,3.24,3.24,0,0,0,2.27-.84,2.76,2.76,0,0,0,.91-2.12,2.13,2.13,0,0,0-.77-1.87,9.13,9.13,0,0,0-1.32-.9c-.15-.08-.4-.2-.77-.36l-1.13-.48a10.19,10.19,0,0,1-2.07-1,6.08,6.08,0,0,1-1.3-1.2,4.36,4.36,0,0,1-1.14-3.05,4.42,4.42,0,0,1,1.21-3.2,3.91,3.91,0,0,1,3-1.28,4.23,4.23,0,0,1,1.11.13,3.68,3.68,0,0,1,1,.4,3,3,0,0,0,.65.24c.25,0,.4-.2.46-.6h.94l1.52,4.4-1.33.65-.5-1.13c-.08-.16-.16-.3-.24-.43s-.22-.31-.41-.56a4,4,0,0,0-1.13-.95,2.9,2.9,0,0,0-1.45-.42,2.29,2.29,0,0,0-1.7.67,2.35,2.35,0,0,0-.66,1.74,2.52,2.52,0,0,0,.53,1.69,5.15,5.15,0,0,0,1.13.92,12.42,12.42,0,0,0,1.76.78,12.72,12.72,0,0,1,2,.87,10.53,10.53,0,0,1,1.86,1.25,3.9,3.9,0,0,1,1.12,3.2,5.07,5.07,0,0,1-1.45,3.7,4.93,4.93,0,0,1-3.67,1.48,5.78,5.78,0,0,1-2.77-.7l-.44-.14c-.17,0-.33.19-.48.58h-1l-1.69-5.16Z"/><path class="cls-5" d="M345,139.39h6.94v1.33h-.37a2,2,0,0,0-1.47.42,2.38,2.38,0,0,0-.38,1.55v8.91a4.14,4.14,0,0,0,.72,2.61,3.22,3.22,0,0,0,2.66.93q3.36,0,3.36-3.58v-9.49A1.12,1.12,0,0,0,356,141a3.2,3.2,0,0,0-1.43-.26h-.29v-1.33h6.09v1.33H360a2.09,2.09,0,0,0-1.46.37,2.39,2.39,0,0,0-.37,1.6v9a4.89,4.89,0,0,1-1.39,3.82,6.1,6.1,0,0,1-4.22,1.26c-1.93,0-3.22-.33-3.87-1a4.9,4.9,0,0,1-1.21-1.76,7.62,7.62,0,0,1-.24-2.18v-9.14a2.38,2.38,0,0,0-.38-1.59,2.14,2.14,0,0,0-1.55-.4H345Z"/><path class="cls-5" d="M373.52,155.43h.36a2.33,2.33,0,0,0,1.61-.41,2.22,2.22,0,0,0,.41-1.58V142.69a2.38,2.38,0,0,0-.38-1.59,2.52,2.52,0,0,0-1.66-.38h-.34v-1.33h7.37v1.33h-.36a2.62,2.62,0,0,0-1.7.39,2.15,2.15,0,0,0-.42,1.58v12.43h1.85a5.08,5.08,0,0,0,3-.71,7,7,0,0,0,1.43-1.38,10.55,10.55,0,0,0,1-1.93l1.28.57-2.15,5.08H373.52Z"/><path class="cls-5" d="M400.08,139.39h11l2,4.89-1.37.7a13.41,13.41,0,0,0-.77-1.59,4.21,4.21,0,0,0-.67-.94l-.63-.57-.63-.41a4.26,4.26,0,0,0-1-.36l-1.3-.1v13.07a1.06,1.06,0,0,0,.46,1,2.5,2.5,0,0,0,.47.18l.33.08.92.05h.27v1.32h-7.46v-1.32h.36a2.79,2.79,0,0,0,1.7-.37,2.14,2.14,0,0,0,.44-1.6V141a7.32,7.32,0,0,0-1.23.07,4.6,4.6,0,0,0-1,.37l-.53.38-.65.58a6.36,6.36,0,0,0-.69.92c-.25.44-.51,1-.8,1.65l-1.37-.67Z"/><path class="cls-5" d="M426.2,155.43h.27a2.1,2.1,0,0,0,1-.2,1.78,1.78,0,0,0,.58-.58,8.48,8.48,0,0,0,.48-1.17l4.38-14.09h2.34l4.4,14.07a5.24,5.24,0,0,0,.5,1.2,1.8,1.8,0,0,0,.56.57,2.29,2.29,0,0,0,1.09.2H442v1.32h-7.18v-1.32h.41a4.46,4.46,0,0,0,1.62-.21.78.78,0,0,0,.48-.77,4.55,4.55,0,0,0-.23-1l-.85-2.7h-5.13l-.83,2.68a3,3,0,0,0-.23,1,.79.79,0,0,0,.41.75,3.34,3.34,0,0,0,1.47.22h.38v1.32H426.2Zm5.27-6h4.44l-2.25-7.11Z"/><path class="cls-5" d="M457.5,155.43h1.15a3.47,3.47,0,0,0,.73-.3c.33-.17.5-.72.5-1.65V142.7a3.7,3.7,0,0,0-.14-1.16,1.09,1.09,0,0,0-.58-.6,1.49,1.49,0,0,0-.51-.17l-.86-.05h-.29v-1.33h5.35l6,12.06v-9.38c0-.54-.16-.89-.46-1a3.56,3.56,0,0,0-.78-.31h-1.15v-1.33h6.41v1.33h-.39a2.47,2.47,0,0,0-1.61.37,2.25,2.25,0,0,0-.41,1.6v14.06h-1.76l-7.17-14.51V154.1a1.33,1.33,0,0,0,.17.71,1,1,0,0,0,.45.45l.58.17h1.18v1.32h-6.4Z"/><path class="cls-5" d="M496.36,139.18l1.49,5.44-1.44.51-.73-2a8,8,0,0,0-.74-1.33,2.25,2.25,0,0,0-2.1-1c-1,0-1.89.68-2.56,2a12.22,12.22,0,0,0-1,5.35,11.76,11.76,0,0,0,1,5.21,2.92,2.92,0,0,0,2.63,1.91,2.59,2.59,0,0,0,2.39-1.2,13.76,13.76,0,0,0,.95-1.73c.07-.18.14-.4.22-.65s.17-.58.27-1l1.46.58a13.65,13.65,0,0,1-.53,1.86,6.33,6.33,0,0,1-.39.83c-.19.33-.48.79-.88,1.4-.68,1.1-1.92,1.64-3.73,1.64a5.22,5.22,0,0,1-4.42-2.41,10.34,10.34,0,0,1-1.72-6.18,12.24,12.24,0,0,1,1.73-6.71,5,5,0,0,1,4.31-2.73,3,3,0,0,1,1.42.26l.53.29.17.07.29.08c.24,0,.38-.2.43-.6Z"/><path class="cls-5" d="M512.94,139.39h7.42v1.33h-.75l-.48.1a1,1,0,0,0-.84,1l0,.29.14.44.31.67L521,148l2.49-4.82a3.58,3.58,0,0,0,.49-1.47c0-.69-.55-1-1.66-1h-.41v-1.33h6.43v1.33a2.43,2.43,0,0,0-1.42.47,5,5,0,0,0-.73.81l-.63,1-3.82,6.91v4.19a1.26,1.26,0,0,0,.75,1.13l.53.17.92.05h.31v1.32h-7.49v-1.32h.36a2.73,2.73,0,0,0,1.68-.37,2.11,2.11,0,0,0,.44-1.59v-3.55l-3.49-7a7.67,7.67,0,0,0-.63-1.1,2.91,2.91,0,0,0-.57-.64,2.47,2.47,0,0,0-1.62-.43Z"/><path class="cls-6" d="M313.77,47.22V71.8h19.68v1.47H313.77v28.6h-6.39V45.74h28.46v1.48Z"/><path class="cls-6" d="M390.12,79.3H368.29l-10,22.57h-2l25.46-57.22h.49l24.51,57.22h-6.88Zm-.63-1.47L379.41,54.3,368.94,77.83Z"/><path class="cls-6" d="M434.65,47.22V71.8h19.68v1.47H434.65v28.6h-6.39V45.74h28.46v1.48Z"/><path class="cls-5" d="M220.5,113.42v3.45h4.39v3.45H220.5v6.89h-3.45V110h8.61v3.45Z"/><path class="cls-5" d="M246.27,109.34h.37l7.25,17.87H250l-.7-1.85H243.6l-.68,1.85H239ZM248,122.12l-1.56-4.48-1.62,4.48Z"/><path class="cls-5" d="M268,122.49a7.75,7.75,0,0,0,4.92,1.37,1.74,1.74,0,0,0,1.79-1.74c-.07-1-.82-1.42-1.79-1.76-2.7-1-5.11-2.36-5.11-5.25a5,5,0,0,1,4.87-5.26,10.14,10.14,0,0,1,4.29.72l-.43,3.33a7.73,7.73,0,0,0-3.52-.72,1.7,1.7,0,0,0-1.71,1.93c.09,1,.94,1.4,1.93,1.73,2.67,1,5,2.54,5,5.28a5.12,5.12,0,0,1-5.21,5.24,10.8,10.8,0,0,1-5.45-1.26Z"/><path class="cls-5" d="M296,127.21V113.42h-4.29V110h12v3.43h-4.29v13.79Z"/><path class="cls-5" d="M343,109.34h.37l7.25,17.87h-3.88l-.7-1.85h-5.71l-.68,1.85h-3.91Zm1.76,12.78-1.56-4.48-1.62,4.48Z"/><path class="cls-5" d="M368.56,127.21h-3.45v-17.6H366l8.7,10.13V110h3.47v17.58h-.91l-8.73-9.74Z"/><path class="cls-5" d="M399.27,127.21h-5.14V110h5.14C410.75,110,410.75,127.21,399.27,127.21Zm-1.69-13.79v10.34h1.69c6.7,0,6.7-10.34,0-10.34Z"/><path class="cls-5" d="M445.51,113.42v3.45h4.39v3.45h-4.39v6.89h-3.45V110h8.61v3.45Z"/><path class="cls-5" d="M465.57,127.21V110H469v17.24Z"/><path class="cls-5" d="M493.54,127.21l-3.47-6.58h-1.66v6.58H485V110h6.8c6.15,0,6.75,8.66,1.68,10.13l4,7.11Zm-5.13-9.93h3c2.34,0,2.34-3.86,0-3.86h-3Z"/><path class="cls-5" d="M511.43,122.49a7.72,7.72,0,0,0,4.92,1.37,1.74,1.74,0,0,0,1.78-1.74c-.07-1-.82-1.42-1.78-1.76-2.7-1-5.12-2.36-5.12-5.25a5.06,5.06,0,0,1,4.87-5.26,10.19,10.19,0,0,1,4.3.72L520,113.9a7.73,7.73,0,0,0-3.52-.72,1.7,1.7,0,0,0-1.71,1.93c.1,1,.94,1.4,1.93,1.73,2.68,1,5,2.54,5,5.28a5.12,5.12,0,0,1-5.21,5.24A10.8,10.8,0,0,1,511,126.1Z"/><path class="cls-5" d="M539.44,127.21V113.42h-4.29V110h12v3.43h-4.3v13.79Z"/></svg>