<svg width="151" height="36" viewBox="0 0 151 36" fill="none" xmlns="http://www.w3.org/2000/svg">
<path d="M44.0735 23.8329H54.8999V20.5543H47.9215V8.20508H44.0735V23.8329Z" fill="white"/>
<path d="M61.3143 21.647C59.7708 21.647 58.9664 20.2919 58.9664 18.2592C58.9664 16.2265 59.7708 14.8495 61.3143 14.8495C62.8578 14.8495 63.6839 16.2265 63.6839 18.2592C63.6839 20.2919 62.8578 21.647 61.3143 21.647ZM61.336 24.1825C64.9231 24.1825 67.271 21.6252 67.271 18.2592C67.271 14.8932 64.9231 12.3359 61.336 12.3359C57.7707 12.3359 55.3794 14.8932 55.3794 18.2592C55.3794 21.6252 57.7707 24.1825 61.336 24.1825Z" fill="white"/>
<path d="M73.4801 27.7018C75.1324 27.7018 76.5889 27.3302 77.5672 26.456C78.4585 25.6473 79.0455 24.4233 79.0455 22.7403V12.6423H75.6541V13.8444H75.6106C74.9584 12.9046 73.9584 12.3145 72.4801 12.3145C69.7192 12.3145 67.8061 14.6313 67.8061 17.9099C67.8061 21.3414 70.1322 23.2211 72.6323 23.2211C73.9802 23.2211 74.828 22.6747 75.4802 21.9316H75.5671V23.0463C75.5671 24.4014 74.9367 25.1883 73.4367 25.1883C72.2627 25.1883 71.6757 24.6855 71.4801 24.0954H68.0452C68.3931 26.4341 70.4148 27.7018 73.4801 27.7018ZM73.4584 20.5764C72.1323 20.5764 71.2627 19.4836 71.2627 17.8006C71.2627 16.0957 72.1323 15.0029 73.4584 15.0029C74.9367 15.0029 75.7193 16.2706 75.7193 17.7787C75.7193 19.3524 75.0019 20.5764 73.4584 20.5764Z" fill="white"/>
<path d="M86.0183 21.647C84.4748 21.647 83.6704 20.2919 83.6704 18.2592C83.6704 16.2265 84.4748 14.8495 86.0183 14.8495C87.5618 14.8495 88.3879 16.2265 88.3879 18.2592C88.3879 20.2919 87.5618 21.647 86.0183 21.647ZM86.0401 24.1825C89.6271 24.1825 91.9745 21.6252 91.9745 18.2592C91.9745 14.8932 89.6271 12.3359 86.0401 12.3359C82.4748 12.3359 80.0834 14.8932 80.0834 18.2592C80.0834 21.6252 82.4748 24.1825 86.0401 24.1825Z" fill="white"/>
<path d="M93.0097 23.8329H96.5537V12.6421H93.0097V23.8329ZM93.0097 11.0902H96.5537V8.20508H93.0097V11.0902Z" fill="white"/>
<path d="M98.091 27.527H101.635V22.6747H101.678C102.374 23.6145 103.395 24.1828 104.83 24.1828C107.743 24.1828 109.678 21.866 109.678 18.2377C109.678 14.8717 107.874 12.3145 104.917 12.3145C103.395 12.3145 102.308 12.992 101.548 13.9974H101.482V12.6423H98.091V27.527ZM103.917 21.4288C102.395 21.4288 101.526 20.183 101.526 18.3689C101.526 16.5547 102.308 15.1777 103.852 15.1777C105.374 15.1777 106.091 16.4454 106.091 18.3689C106.091 20.2704 105.265 21.4288 103.917 21.4288Z" fill="white"/>
<path d="M115.447 24.1828C118.36 24.1828 120.512 22.9151 120.512 20.4671C120.512 17.6039 118.207 17.1011 116.251 16.7733C114.838 16.511 113.577 16.4017 113.577 15.6149C113.577 14.9154 114.251 14.5876 115.12 14.5876C116.099 14.5876 116.773 14.8936 116.903 15.899H120.164C119.99 13.6914 118.294 12.3145 115.142 12.3145C112.512 12.3145 110.338 13.5384 110.338 15.899C110.338 18.5219 112.403 19.0464 114.338 19.3743C115.816 19.6366 117.164 19.7458 117.164 20.7513C117.164 21.4726 116.49 21.866 115.425 21.866C114.251 21.866 113.512 21.3196 113.381 20.2048H110.033C110.142 22.6747 112.186 24.1828 115.447 24.1828Z" fill="white"/>
<path d="M125.326 24.1612C126.87 24.1612 127.848 23.5492 128.652 22.4564H128.717V23.8334H132.109V12.6426H128.565V18.8937C128.565 20.227 127.826 21.145 126.609 21.145C125.478 21.145 124.935 20.4674 124.935 19.2434V12.6426H121.413V19.9865C121.413 22.4782 122.761 24.1612 125.326 24.1612Z" fill="white"/>
<path d="M133.65 23.8331H137.194V17.5601C137.194 16.2269 137.846 15.287 138.955 15.287C140.02 15.287 140.52 15.9864 140.52 17.1886V23.8331H144.063V17.5601C144.063 16.2269 144.694 15.287 145.824 15.287C146.89 15.287 147.39 15.9864 147.39 17.1886V23.8331H150.933V16.5547C150.933 14.0412 149.672 12.3145 147.151 12.3145C145.716 12.3145 144.52 12.9265 143.65 14.2816H143.607C143.042 13.0794 141.933 12.3145 140.476 12.3145C138.868 12.3145 137.802 13.0795 137.107 14.2379H137.042V12.6423H133.65V23.8331Z" fill="white"/>
<path fill-rule="evenodd" clip-rule="evenodd" d="M7.6809 3.23808C6.40022 4.13841 5.24214 5.20288 4.23682 6.40116C8.34501 6.0177 13.5643 6.64384 19.6239 9.69001C26.0947 12.9428 31.3053 13.0528 34.9316 12.3495C34.6025 11.3479 34.1882 10.3853 33.6976 9.47014C29.5464 9.91033 24.2247 9.32767 18.0226 6.20998C14.0842 4.23016 10.6126 3.41461 7.6809 3.23808ZM31.2727 5.99998C27.9945 2.3175 23.2305 0 17.9281 0C16.3709 0 14.8601 0.199896 13.4197 0.575532C15.3705 1.11068 17.4428 1.89359 19.6239 2.99004C24.1647 5.27268 28.085 6.00764 31.2727 5.99998ZM35.7069 15.8653C31.3259 16.735 25.2763 16.5564 18.0226 12.9099C11.2412 9.50092 5.84375 9.54385 2.20353 10.3572C2.01563 10.3991 1.83216 10.4432 1.65311 10.4891C1.17652 11.5312 0.796086 12.6271 0.523121 13.765C0.814662 13.6867 1.11593 13.6123 1.42675 13.5428C5.84298 12.5562 12.0827 12.599 19.6239 16.39C26.4054 19.799 31.8028 19.7561 35.4431 18.9427C35.5678 18.9149 35.6907 18.8861 35.8115 18.8564C35.8248 18.5727 35.8314 18.2871 35.8314 18C35.8314 17.2777 35.7891 16.5654 35.7069 15.8653ZM35.227 22.6551C30.8886 23.4176 25.0151 23.125 18.0226 19.6099C11.2412 16.2009 5.84375 16.2438 2.20353 17.0571C1.3955 17.2376 0.668619 17.4575 0.0274031 17.6896C0.0256549 17.7928 0.0247803 17.8963 0.0247803 18C0.0247803 27.9411 8.04036 36 17.9281 36C26.2147 36 33.1864 30.3398 35.227 22.6551Z" fill="url(#paint0_linear_750_163)"/>
<defs>
<linearGradient id="paint0_linear_750_163" x1="35.8314" y1="18" x2="0.0247803" y2="18" gradientUnits="userSpaceOnUse">
<stop stop-color="#725DA7"/>
<stop offset="1" stop-color="#E79D42"/>
</linearGradient>
</defs>
</svg>
