<svg width="153" height="36" viewBox="0 0 153 36" fill="none" xmlns="http://www.w3.org/2000/svg">
<path d="M45.172 23.8796H55.9983V20.601H49.0199V8.25177H45.172V23.8796Z" fill="white"/>
<path d="M62.4126 21.6937C60.8691 21.6937 60.0648 20.3386 60.0648 18.3059C60.0648 16.2732 60.8691 14.8962 62.4126 14.8962C63.9562 14.8962 64.7823 16.2732 64.7823 18.3059C64.7823 20.3386 63.9562 21.6937 62.4126 21.6937ZM62.4344 24.2291C66.0214 24.2291 68.3693 21.6719 68.3693 18.3059C68.3693 14.9399 66.0214 12.3826 62.4344 12.3826C58.8691 12.3826 56.4777 14.9399 56.4777 18.3059C56.4777 21.6719 58.8691 24.2291 62.4344 24.2291Z" fill="white"/>
<path d="M74.5785 27.7485C76.2307 27.7485 77.6873 27.3769 78.6656 26.5027C79.5569 25.6939 80.1439 24.4699 80.1439 22.787V12.689H76.7525V13.8911H76.709C76.0568 12.9513 75.0568 12.3611 73.5785 12.3611C70.8176 12.3611 68.9045 14.678 68.9045 17.9566C68.9045 21.3881 71.2306 23.2678 73.7307 23.2678C75.0785 23.2678 75.9264 22.7214 76.5786 21.9782H76.6655V23.093C76.6655 24.4481 76.0351 25.2349 74.5351 25.2349C73.3611 25.2349 72.7741 24.7322 72.5785 24.1421H69.1436C69.4915 26.4808 71.5132 27.7485 74.5785 27.7485ZM74.5568 20.6231C73.2307 20.6231 72.3611 19.5303 72.3611 17.8473C72.3611 16.1424 73.2307 15.0496 74.5568 15.0496C76.0351 15.0496 76.8177 16.3173 76.8177 17.8254C76.8177 19.3991 76.1003 20.6231 74.5568 20.6231Z" fill="white"/>
<path d="M87.1167 21.6937C85.5732 21.6937 84.7688 20.3386 84.7688 18.3059C84.7688 16.2732 85.5732 14.8962 87.1167 14.8962C88.6602 14.8962 89.4863 16.2732 89.4863 18.3059C89.4863 20.3386 88.6602 21.6937 87.1167 21.6937ZM87.1384 24.2291C90.7255 24.2291 93.0729 21.6719 93.0729 18.3059C93.0729 14.9399 90.7255 12.3826 87.1384 12.3826C83.5731 12.3826 81.1818 14.9399 81.1818 18.3059C81.1818 21.6719 83.5731 24.2291 87.1384 24.2291Z" fill="white"/>
<path d="M94.1083 23.8796H97.6523V12.6888H94.1083V23.8796ZM94.1083 11.1369H97.6523V8.25177H94.1083V11.1369Z" fill="white"/>
<path d="M99.1894 27.5737H102.733V22.7214H102.776C103.472 23.6612 104.494 24.2295 105.929 24.2295C108.842 24.2295 110.777 21.9127 110.777 18.2844C110.777 14.9184 108.972 12.3611 106.016 12.3611C104.494 12.3611 103.407 13.0387 102.646 14.0441H102.581V12.689H99.1894V27.5737ZM105.016 21.4755C103.494 21.4755 102.624 20.2297 102.624 18.4155C102.624 16.6014 103.407 15.2244 104.95 15.2244C106.472 15.2244 107.19 16.4921 107.19 18.4155C107.19 20.3171 106.363 21.4755 105.016 21.4755Z" fill="white"/>
<path d="M116.545 24.2295C119.458 24.2295 121.61 22.9618 121.61 20.5138C121.61 17.6506 119.306 17.1478 117.349 16.82C115.936 16.5577 114.675 16.4484 114.675 15.6616C114.675 14.9621 115.349 14.6343 116.219 14.6343C117.197 14.6343 117.871 14.9403 118.001 15.9457H121.262C121.089 13.7381 119.393 12.3611 116.241 12.3611C113.61 12.3611 111.436 13.5851 111.436 15.9457C111.436 18.5685 113.501 19.0931 115.436 19.421C116.915 19.6833 118.262 19.7925 118.262 20.798C118.262 21.5192 117.588 21.9127 116.523 21.9127C115.349 21.9127 114.61 21.3662 114.48 20.2515H111.132C111.24 22.7214 113.284 24.2295 116.545 24.2295Z" fill="white"/>
<path d="M126.424 24.2079C127.968 24.2079 128.946 23.5959 129.751 22.5031H129.816V23.8801H133.207V12.6893H129.664V18.9404C129.664 20.2737 128.924 21.1917 127.707 21.1917C126.577 21.1917 126.033 20.5141 126.033 19.2901V12.6893H122.511V20.0332C122.511 22.5249 123.859 24.2079 126.424 24.2079Z" fill="white"/>
<path d="M134.749 23.8798H138.293V17.6068C138.293 16.2736 138.945 15.3337 140.053 15.3337C141.119 15.3337 141.619 16.0331 141.619 17.2353V23.8798H145.162V17.6068C145.162 16.2736 145.793 15.3337 146.923 15.3337C147.988 15.3337 148.488 16.0331 148.488 17.2353V23.8798H152.032V16.6014C152.032 14.0879 150.771 12.3611 148.249 12.3611C146.815 12.3611 145.619 12.9731 144.749 14.3283H144.706C144.141 13.1261 143.032 12.3611 141.575 12.3611C139.967 12.3611 138.901 13.1261 138.206 14.2846H138.14V12.689H134.749V23.8798Z" fill="white"/>
<path fill-rule="evenodd" clip-rule="evenodd" d="M18.6258 36C28.5135 36 36.5291 27.9411 36.5291 18C36.5291 8.05888 28.5135 0 18.6258 0C8.73799 0 0.722412 8.05888 0.722412 18C0.722412 27.9411 8.73799 36 18.6258 36ZM24.211 8.38516C24.4828 7.41425 23.5457 6.84012 22.6898 7.45317L10.7421 16.0106C9.81392 16.6755 9.95992 18 10.9614 18H14.1076V17.9755H20.2393L15.2431 19.7479L13.0405 27.6149C12.7687 28.5858 13.7057 29.1599 14.5617 28.5468L26.5094 19.9894C27.4376 19.3246 27.2915 18 26.2901 18H21.519L24.211 8.38516Z" fill="url(#paint0_linear_750_193)"/>
<defs>
<linearGradient id="paint0_linear_750_193" x1="36.5291" y1="18" x2="0.722412" y2="18" gradientUnits="userSpaceOnUse">
<stop stop-color="#725DA7"/>
<stop offset="1" stop-color="#E79D42"/>
</linearGradient>
</defs>
</svg>
