<svg width="150" height="36" viewBox="0 0 150 36" fill="none" xmlns="http://www.w3.org/2000/svg">
<path d="M44.1286 23.8109H54.8274V20.5709H47.9312V8.36719H44.1286V23.8109Z" fill="white"/>
<path d="M61.1665 21.6506C59.6412 21.6506 58.8463 20.3115 58.8463 18.3027C58.8463 16.2939 59.6412 14.9332 61.1665 14.9332C62.6919 14.9332 63.5082 16.2939 63.5082 18.3027C63.5082 20.3115 62.6919 21.6506 61.1665 21.6506ZM61.188 24.1562C64.7328 24.1562 67.053 21.629 67.053 18.3027C67.053 14.9764 64.7328 12.4492 61.188 12.4492C57.6647 12.4492 55.3015 14.9764 55.3015 18.3027C55.3015 21.629 57.6647 24.1562 61.188 24.1562Z" fill="white"/>
<path d="M73.189 27.6338C74.8217 27.6338 76.2611 27.2666 77.2279 26.4027C78.1087 25.6035 78.6888 24.3939 78.6888 22.7307V12.7517H75.3374V13.9397H75.2944C74.6499 13.0109 73.6616 12.4277 72.2008 12.4277C69.4723 12.4277 67.5818 14.7173 67.5818 17.9572C67.5818 21.3484 69.8805 23.2059 72.3511 23.2059C73.6831 23.2059 74.521 22.6659 75.1655 21.9315H75.2514V23.0331C75.2514 24.3723 74.6284 25.1499 73.146 25.1499C71.9859 25.1499 71.4059 24.6531 71.2125 24.0699H67.8181C68.1618 26.3811 70.1598 27.6338 73.189 27.6338ZM73.1675 20.5924C71.857 20.5924 70.9977 19.5124 70.9977 17.8492C70.9977 16.1645 71.857 15.0845 73.1675 15.0845C74.6284 15.0845 75.4018 16.3373 75.4018 17.8276C75.4018 19.3828 74.6928 20.5924 73.1675 20.5924Z" fill="white"/>
<path d="M85.5791 21.6506C84.0538 21.6506 83.2589 20.3115 83.2589 18.3027C83.2589 16.2939 84.0538 14.9332 85.5791 14.9332C87.1045 14.9332 87.9208 16.2939 87.9208 18.3027C87.9208 20.3115 87.1045 21.6506 85.5791 21.6506ZM85.6006 24.1562C89.1454 24.1562 91.4652 21.629 91.4652 18.3027C91.4652 14.9764 89.1454 12.4492 85.6006 12.4492C82.0773 12.4492 79.7141 14.9764 79.7141 18.3027C79.7141 21.629 82.0773 24.1562 85.6006 24.1562Z" fill="white"/>
<path d="M92.4884 23.8109H95.9906V12.7519H92.4884V23.8109ZM92.4884 11.2183H95.9906V8.36719H92.4884V11.2183Z" fill="white"/>
<path d="M97.5098 27.461H101.012V22.6659H101.055C101.742 23.5947 102.752 24.1563 104.17 24.1563C107.049 24.1563 108.961 21.8667 108.961 18.2812C108.961 14.9549 107.177 12.4277 104.256 12.4277C102.752 12.4277 101.678 13.0973 100.926 14.0909H100.861V12.7517H97.5098V27.461ZM103.267 21.4348C101.764 21.4348 100.904 20.2036 100.904 18.4108C100.904 16.6181 101.678 15.2573 103.203 15.2573C104.707 15.2573 105.416 16.5101 105.416 18.4108C105.416 20.29 104.599 21.4348 103.267 21.4348Z" fill="white"/>
<path d="M114.661 24.1563C117.54 24.1563 119.667 22.9035 119.667 20.4844C119.667 17.6548 117.389 17.158 115.456 16.834C114.06 16.5749 112.813 16.4669 112.813 15.6893C112.813 14.9981 113.479 14.6741 114.339 14.6741C115.306 14.6741 115.972 14.9765 116.1 15.9701H119.323C119.151 13.7885 117.475 12.4277 114.36 12.4277C111.761 12.4277 109.612 13.6373 109.612 15.9701C109.612 18.562 111.653 19.0804 113.565 19.4044C115.026 19.6636 116.358 19.7716 116.358 20.7652C116.358 21.478 115.692 21.8667 114.64 21.8667C113.479 21.8667 112.749 21.3268 112.62 20.2252H109.312C109.419 22.6659 111.439 24.1563 114.661 24.1563Z" fill="white"/>
<path d="M124.424 24.1349C125.949 24.1349 126.916 23.5301 127.711 22.4502H127.775V23.8109H131.127V12.752H127.625V18.9294C127.625 20.247 126.894 21.1542 125.691 21.1542C124.574 21.1542 124.037 20.4846 124.037 19.275V12.752H120.557V20.0094C120.557 22.4718 121.889 24.1349 124.424 24.1349Z" fill="white"/>
<path d="M132.65 23.8107H136.152V17.6116C136.152 16.2941 136.796 15.3653 137.892 15.3653C138.945 15.3653 139.439 16.0565 139.439 17.2444V23.8107H142.941V17.6116C142.941 16.2941 143.564 15.3653 144.681 15.3653C145.734 15.3653 146.228 16.0565 146.228 17.2444V23.8107H149.73V16.6181C149.73 14.1341 148.483 12.4277 145.991 12.4277C144.573 12.4277 143.392 13.0325 142.533 14.3717H142.49C141.931 13.1837 140.835 12.4277 139.396 12.4277C137.806 12.4277 136.753 13.1837 136.066 14.3285H136.002V12.7517H132.65V23.8107Z" fill="white"/>
<path d="M22.7639 0.948454L19.2433 0L16.2764 11.1324L13.5978 1.08199L10.0771 2.03045L12.9711 12.8892L5.76284 5.64197L3.18554 8.23319L11.0921 16.1826L1.24573 13.5299L0.302368 17.0696L11.0608 19.9679C10.9376 19.4337 10.8725 18.8772 10.8725 18.3053C10.8725 14.2576 14.1362 10.9762 18.1622 10.9762C22.1882 10.9762 25.4519 14.2576 25.4519 18.3053C25.4519 18.8735 25.3876 19.4266 25.2659 19.9576L35.0434 22.5916L35.9867 19.052L25.1854 16.1421L35.0325 13.4894L34.0891 9.94973L23.2884 12.8594L30.4966 5.61222L27.9193 3.021L20.1224 10.8601L22.7639 0.948454Z" fill="url(#paint0_linear_750_142)"/>
<path d="M25.2561 19.9998C24.9543 21.2828 24.317 22.4354 23.4426 23.3589L30.5259 30.4805L33.1032 27.8893L25.2561 19.9998Z" fill="url(#paint1_linear_750_142)"/>
<path d="M23.3712 23.4336C22.4861 24.3423 21.3677 25.0204 20.1134 25.3699L22.6912 35.0411L26.2122 34.0926L23.3712 23.4336Z" fill="url(#paint2_linear_750_142)"/>
<path d="M19.9828 25.4044C19.4008 25.5548 18.7909 25.6347 18.1623 25.6347C17.4889 25.6347 16.8368 25.5429 16.2178 25.3711L13.6376 35.0511L17.1587 35.9995L19.9828 25.4044Z" fill="url(#paint3_linear_750_142)"/>
<path d="M16.0929 25.338C14.858 24.9711 13.7595 24.2844 12.8927 23.373L5.79193 30.5122L8.36923 33.1034L16.0929 25.338Z" fill="url(#paint4_linear_750_142)"/>
<path d="M12.8343 23.3077C11.9823 22.3907 11.3617 21.2534 11.0663 19.9902L1.25696 22.6329L2.20031 26.1725L12.8343 23.3077Z" fill="url(#paint5_linear_750_142)"/>
<defs>
<linearGradient id="paint0_linear_750_142" x1="35.9867" y1="11.2958" x2="0.302368" y2="11.2958" gradientUnits="userSpaceOnUse">
<stop stop-color="#725DA7"/>
<stop offset="1" stop-color="#E79D42"/>
</linearGradient>
<linearGradient id="paint1_linear_750_142" x1="33.1032" y1="25.2401" x2="23.4426" y2="25.2401" gradientUnits="userSpaceOnUse">
<stop stop-color="#725DA7"/>
<stop offset="1" stop-color="#E79D42"/>
</linearGradient>
<linearGradient id="paint2_linear_750_142" x1="26.2122" y1="29.2374" x2="20.1134" y2="29.2374" gradientUnits="userSpaceOnUse">
<stop stop-color="#725DA7"/>
<stop offset="1" stop-color="#E79D42"/>
</linearGradient>
<linearGradient id="paint3_linear_750_142" x1="19.9828" y1="30.6853" x2="13.6376" y2="30.6853" gradientUnits="userSpaceOnUse">
<stop stop-color="#725DA7"/>
<stop offset="1" stop-color="#E79D42"/>
</linearGradient>
<linearGradient id="paint4_linear_750_142" x1="16.0929" y1="28.2382" x2="5.79193" y2="28.2382" gradientUnits="userSpaceOnUse">
<stop stop-color="#725DA7"/>
<stop offset="1" stop-color="#E79D42"/>
</linearGradient>
<linearGradient id="paint5_linear_750_142" x1="12.8343" y1="23.0814" x2="1.25696" y2="23.0814" gradientUnits="userSpaceOnUse">
<stop stop-color="#725DA7"/>
<stop offset="1" stop-color="#E79D42"/>
</linearGradient>
</defs>
</svg>
