<svg width="152" height="36" viewBox="0 0 152 36" fill="none" xmlns="http://www.w3.org/2000/svg">
<path d="M44.4495 23.8796H55.2758V20.601H48.2974V8.25177H44.4495V23.8796Z" fill="white"/>
<path d="M61.6902 21.6937C60.1467 21.6937 59.3423 20.3386 59.3423 18.3059C59.3423 16.2732 60.1467 14.8962 61.6902 14.8962C63.2337 14.8962 64.0598 16.2732 64.0598 18.3059C64.0598 20.3386 63.2337 21.6937 61.6902 21.6937ZM61.7119 24.2291C65.299 24.2291 67.6468 21.6719 67.6468 18.3059C67.6468 14.9399 65.299 12.3826 61.7119 12.3826C58.1466 12.3826 55.7552 14.9399 55.7552 18.3059C55.7552 21.6719 58.1466 24.2291 61.7119 24.2291Z" fill="white"/>
<path d="M73.856 27.7485C75.5082 27.7485 76.9648 27.3769 77.943 26.5027C78.8344 25.6939 79.4213 24.4699 79.4213 22.787V12.689H76.03V13.8911H75.9865C75.3343 12.9513 74.3343 12.3611 72.856 12.3611C70.095 12.3611 68.1819 14.678 68.1819 17.9566C68.1819 21.3881 70.5081 23.2678 73.0081 23.2678C74.356 23.2678 75.2039 22.7214 75.856 21.9782H75.943V23.093C75.943 24.4481 75.3126 25.2349 73.8125 25.2349C72.6386 25.2349 72.0516 24.7322 71.8559 24.1421H68.4211C68.7689 26.4808 70.7907 27.7485 73.856 27.7485ZM73.8343 20.6231C72.5081 20.6231 71.6386 19.5303 71.6386 17.8473C71.6386 16.1424 72.5081 15.0496 73.8343 15.0496C75.3126 15.0496 76.0952 16.3173 76.0952 17.8254C76.0952 19.3991 75.3778 20.6231 73.8343 20.6231Z" fill="white"/>
<path d="M86.3942 21.6937C84.8507 21.6937 84.0463 20.3386 84.0463 18.3059C84.0463 16.2732 84.8507 14.8962 86.3942 14.8962C87.9377 14.8962 88.7638 16.2732 88.7638 18.3059C88.7638 20.3386 87.9377 21.6937 86.3942 21.6937ZM86.4159 24.2291C90.003 24.2291 92.3504 21.6719 92.3504 18.3059C92.3504 14.9399 90.003 12.3826 86.4159 12.3826C82.8506 12.3826 80.4593 14.9399 80.4593 18.3059C80.4593 21.6719 82.8506 24.2291 86.4159 24.2291Z" fill="white"/>
<path d="M93.3857 23.8796H96.9297V12.6888H93.3857V23.8796ZM93.3857 11.1369H96.9297V8.25177H93.3857V11.1369Z" fill="white"/>
<path d="M98.4669 27.5737H102.01V22.7214H102.054C102.75 23.6612 103.771 24.2295 105.206 24.2295C108.119 24.2295 110.054 21.9127 110.054 18.2844C110.054 14.9184 108.25 12.3611 105.293 12.3611C103.771 12.3611 102.684 13.0387 101.923 14.0441H101.858V12.689H98.4669V27.5737ZM104.293 21.4755C102.771 21.4755 101.902 20.2297 101.902 18.4155C101.902 16.6014 102.684 15.2244 104.228 15.2244C105.75 15.2244 106.467 16.4921 106.467 18.4155C106.467 20.3171 105.641 21.4755 104.293 21.4755Z" fill="white"/>
<path d="M115.822 24.2295C118.736 24.2295 120.888 22.9618 120.888 20.5138C120.888 17.6506 118.583 17.1478 116.627 16.82C115.214 16.5577 113.953 16.4484 113.953 15.6616C113.953 14.9621 114.627 14.6343 115.496 14.6343C116.475 14.6343 117.149 14.9403 117.279 15.9457H120.54C120.366 13.7381 118.67 12.3611 115.518 12.3611C112.888 12.3611 110.714 13.5851 110.714 15.9457C110.714 18.5685 112.779 19.0931 114.714 19.421C116.192 19.6833 117.54 19.7925 117.54 20.798C117.54 21.5192 116.866 21.9127 115.801 21.9127C114.627 21.9127 113.888 21.3662 113.757 20.2515H110.409C110.518 22.7214 112.561 24.2295 115.822 24.2295Z" fill="white"/>
<path d="M125.702 24.2079C127.245 24.2079 128.224 23.5959 129.028 22.5031H129.093V23.8801H132.485V12.6893H128.941V18.9404C128.941 20.2737 128.202 21.1917 126.985 21.1917C125.854 21.1917 125.311 20.5141 125.311 19.2901V12.6893H121.789V20.0332C121.789 22.5249 123.137 24.2079 125.702 24.2079Z" fill="white"/>
<path d="M134.026 23.8798H137.57V17.6068C137.57 16.2736 138.222 15.3337 139.331 15.3337C140.396 15.3337 140.896 16.0331 140.896 17.2353V23.8798H144.44V17.6068C144.44 16.2736 145.07 15.3337 146.201 15.3337C147.266 15.3337 147.766 16.0331 147.766 17.2353V23.8798H151.31V16.6014C151.31 14.0879 150.049 12.3611 147.527 12.3611C146.092 12.3611 144.896 12.9731 144.027 14.3283H143.983C143.418 13.1261 142.309 12.3611 140.853 12.3611C139.244 12.3611 138.179 13.1261 137.483 14.2846H137.418V12.689H134.026V23.8798Z" fill="white"/>
<path fill-rule="evenodd" clip-rule="evenodd" d="M17.9033 36C27.7911 36 35.8067 27.9411 35.8067 18C35.8067 8.05888 27.7911 0 17.9033 0C8.01558 0 0 8.05888 0 18C0 27.9411 8.01558 36 17.9033 36ZM23.4886 8.38516C23.7604 7.41425 22.8233 6.84012 21.9674 7.45317L10.0197 16.0106C9.0915 16.6755 9.23751 18 10.239 18H13.3852V17.9755H19.5169L14.5207 19.7479L12.3181 27.6149C12.0463 28.5858 12.9833 29.1599 13.8393 28.5468L25.787 19.9894C26.7152 19.3246 26.5691 18 25.5677 18H20.7966L23.4886 8.38516Z" fill="url(#paint0_linear_750_128)"/>
<defs>
<linearGradient id="paint0_linear_750_128" x1="35.8067" y1="18" x2="0" y2="18" gradientUnits="userSpaceOnUse">
<stop stop-color="#725DA7"/>
<stop offset="1" stop-color="#E79D42"/>
</linearGradient>
</defs>
</svg>
