<svg width="152" height="36" viewBox="0 0 152 36" fill="none" xmlns="http://www.w3.org/2000/svg">
<path d="M45.1399 23.8309H55.9663V20.5524H48.9879V8.20312H45.1399V23.8309Z" fill="white"/>
<path d="M62.3807 21.6451C60.8371 21.6451 60.0328 20.29 60.0328 18.2572C60.0328 16.2245 60.8371 14.8475 62.3807 14.8475C63.9242 14.8475 64.7503 16.2245 64.7503 18.2572C64.7503 20.29 63.9242 21.6451 62.3807 21.6451ZM62.4024 24.1805C65.9894 24.1805 68.3373 21.6232 68.3373 18.2572C68.3373 14.8913 65.9894 12.334 62.4024 12.334C58.8371 12.334 56.4457 14.8913 56.4457 18.2572C56.4457 21.6232 58.8371 24.1805 62.4024 24.1805Z" fill="white"/>
<path d="M74.5465 27.6999C76.1987 27.6999 77.6553 27.3283 78.6336 26.454C79.5249 25.6453 80.1119 24.4213 80.1119 22.7383V12.6404H76.7205V13.8425H76.677C76.0248 12.9026 75.0248 12.3125 73.5465 12.3125C70.7856 12.3125 68.8725 14.6293 68.8725 17.9079C68.8725 21.3395 71.1986 23.2192 73.6987 23.2192C75.0465 23.2192 75.8944 22.6727 76.5466 21.9296H76.6335V23.0443C76.6335 24.3994 76.0031 25.1863 74.503 25.1863C73.3291 25.1863 72.7421 24.6836 72.5465 24.0934H69.1116C69.4594 26.4322 71.4812 27.6999 74.5465 27.6999ZM74.5248 20.5745C73.1987 20.5745 72.3291 19.4816 72.3291 17.7986C72.3291 16.0938 73.1987 15.0009 74.5248 15.0009C76.0031 15.0009 76.7857 16.2686 76.7857 17.7768C76.7857 19.3505 76.0683 20.5745 74.5248 20.5745Z" fill="white"/>
<path d="M87.0847 21.6451C85.5412 21.6451 84.7368 20.29 84.7368 18.2572C84.7368 16.2245 85.5412 14.8475 87.0847 14.8475C88.6282 14.8475 89.4543 16.2245 89.4543 18.2572C89.4543 20.29 88.6282 21.6451 87.0847 21.6451ZM87.1064 24.1805C90.6935 24.1805 93.0409 21.6232 93.0409 18.2572C93.0409 14.8913 90.6935 12.334 87.1064 12.334C83.5411 12.334 81.1498 14.8913 81.1498 18.2572C81.1498 21.6232 83.5411 24.1805 87.1064 24.1805Z" fill="white"/>
<path d="M94.0763 23.8309H97.6203V12.6401H94.0763V23.8309ZM94.0763 11.0883H97.6203V8.20312H94.0763V11.0883Z" fill="white"/>
<path d="M99.1574 27.525H102.701V22.6727H102.744C103.44 23.6126 104.462 24.1809 105.897 24.1809C108.81 24.1809 110.745 21.864 110.745 18.2358C110.745 14.8698 108.94 12.3125 105.984 12.3125C104.462 12.3125 103.375 12.9901 102.614 13.9955H102.549V12.6404H99.1574V27.525ZM104.984 21.4269C103.462 21.4269 102.592 20.181 102.592 18.3669C102.592 16.5528 103.375 15.1758 104.918 15.1758C106.44 15.1758 107.158 16.4435 107.158 18.3669C107.158 20.2685 106.331 21.4269 104.984 21.4269Z" fill="white"/>
<path d="M116.513 24.1809C119.426 24.1809 121.578 22.9132 121.578 20.4652C121.578 17.6019 119.274 17.0992 117.317 16.7713C115.904 16.5091 114.643 16.3998 114.643 15.6129C114.643 14.9135 115.317 14.5856 116.187 14.5856C117.165 14.5856 117.839 14.8916 117.969 15.8971H121.23C121.057 13.6895 119.361 12.3125 116.209 12.3125C113.578 12.3125 111.404 13.5365 111.404 15.8971C111.404 18.5199 113.469 19.0445 115.404 19.3723C116.883 19.6346 118.23 19.7439 118.23 20.7493C118.23 21.4706 117.556 21.864 116.491 21.864C115.317 21.864 114.578 21.3176 114.448 20.2029H111.1C111.208 22.6727 113.252 24.1809 116.513 24.1809Z" fill="white"/>
<path d="M126.392 24.1593C127.936 24.1593 128.914 23.5473 129.719 22.4544H129.784V23.8314H133.175V12.6406H129.632V18.8917C129.632 20.225 128.892 21.143 127.675 21.143C126.545 21.143 126.001 20.4654 126.001 19.2415V12.6406H122.479V19.9846C122.479 22.4763 123.827 24.1593 126.392 24.1593Z" fill="white"/>
<path d="M134.717 23.8312H138.261V17.5582C138.261 16.2249 138.913 15.2851 140.022 15.2851C141.087 15.2851 141.587 15.9845 141.587 17.1866V23.8312H145.13V17.5582C145.13 16.2249 145.761 15.2851 146.891 15.2851C147.956 15.2851 148.456 15.9845 148.456 17.1866V23.8312H152V16.5528C152 14.0392 150.739 12.3125 148.217 12.3125C146.783 12.3125 145.587 12.9245 144.717 14.2796H144.674C144.109 13.0775 143 12.3125 141.543 12.3125C139.935 12.3125 138.869 13.0775 138.174 14.2359H138.108V12.6404H134.717V23.8312Z" fill="white"/>
<path fill-rule="evenodd" clip-rule="evenodd" d="M23.8026 10.5168C22.3305 9.52785 20.5998 9 18.8293 9V0C22.3703 0 25.8317 1.05568 28.7759 3.03355C31.7201 5.01141 34.0148 7.82263 35.3699 11.1117C36.7249 14.4007 37.0794 18.02 36.3886 21.5116C35.6979 25.0033 33.9927 28.2106 31.4889 30.7279C28.9851 33.2453 25.795 34.9596 22.3221 35.6541C18.8492 36.3487 15.2494 35.9922 11.978 34.6298C8.70663 33.2674 5.91052 30.9604 3.94328 28.0003C1.97604 25.0402 0.926025 21.56 0.926025 18H9.87768C9.87768 19.78 10.4027 21.5201 11.3863 23.0001C12.3699 24.4802 13.768 25.6337 15.4037 26.3149C17.0394 26.9961 18.8393 27.1743 20.5757 26.827C22.3122 26.4798 23.9072 25.6226 25.1592 24.364C26.411 23.1053 27.2636 21.5016 27.609 19.7558C27.9544 18.01 27.7772 16.2004 27.0996 14.5559C26.4221 12.9113 25.2747 11.5057 23.8026 10.5168Z" fill="url(#paint0_linear_750_177)"/>
<path fill-rule="evenodd" clip-rule="evenodd" d="M9.87768 4.75644e-06C9.87768 1.1819 9.64614 2.35223 9.19628 3.44416C8.74641 4.53609 8.08704 5.52824 7.2558 6.36397C6.42457 7.1997 5.43775 7.86263 4.35168 8.31493C3.26561 8.76721 2.10157 9.00001 0.926026 9.00001L0.926025 18C3.27712 18 5.6052 17.5344 7.77733 16.6298C9.94947 15.7253 11.9231 14.3994 13.5855 12.7279C15.248 11.0565 16.5668 9.07219 17.4665 6.88831C18.3663 4.70444 18.8293 2.36379 18.8293 0L9.87768 4.75644e-06Z" fill="url(#paint1_linear_750_177)"/>
<defs>
<linearGradient id="paint0_linear_750_177" x1="36.7327" y1="18" x2="0.926025" y2="18" gradientUnits="userSpaceOnUse">
<stop stop-color="#725DA7"/>
<stop offset="1" stop-color="#E79D42"/>
</linearGradient>
<linearGradient id="paint1_linear_750_177" x1="18.8293" y1="9" x2="0.926025" y2="9" gradientUnits="userSpaceOnUse">
<stop stop-color="#725DA7"/>
<stop offset="1" stop-color="#E79D42"/>
</linearGradient>
</defs>
</svg>
