<svg width="174" height="51" viewBox="0 0 174 51" fill="none" xmlns="http://www.w3.org/2000/svg">
<circle cx="25" cy="25.1875" r="25" fill="url(#paint0_linear_165_27234)"/>
<path d="M22.2869 22.6483C22.287 24.1442 23.5041 25.3613 25 25.3613C25.7247 25.3613 26.4061 25.0791 26.9184 24.5666C27.4309 24.0542 27.7131 23.373 27.7131 22.6483C27.7131 21.1522 26.4961 19.9352 25 19.9352C23.504 19.9352 22.2869 21.1522 22.2869 22.6483ZM23.8965 22.6483C23.8965 22.0398 24.3916 21.5448 25 21.5448C25.6085 21.5448 26.1036 22.0398 26.1036 22.6483C26.1036 22.943 25.9887 23.2201 25.7804 23.4285C25.5719 23.6369 25.2947 23.7518 25 23.7517C24.3916 23.7517 23.8965 23.2567 23.8965 22.6483Z" fill="white"/>
<path d="M24.4628 10.393C24.4621 10.3938 24.4586 10.3967 24.4576 10.3977C24.3401 10.5037 22.8049 11.9068 21.2591 14.2047C20.332 15.5828 19.5922 17.0005 19.0605 18.4185C18.6258 19.5774 18.3302 20.7384 18.1756 21.8884C16.7285 22.2312 15.5048 22.6848 14.6146 23.2105C13.0902 24.111 12.7702 25.0865 12.7702 25.7463C12.7702 26.7254 13.4466 28.1163 16.6686 29.1817C17.1029 29.3253 17.5644 29.4563 18.0488 29.5741V32.0875C18.0488 32.5319 18.4092 32.8923 18.8537 32.8923H21.8588C21.9254 34.2012 22.1532 35.4728 22.5285 36.6102C22.9793 37.9761 23.6339 39.1284 24.4216 39.9425C24.5732 40.0991 24.7819 40.1875 24.9999 40.1875C25.218 40.1875 25.4267 40.0991 25.5783 39.9425C26.366 39.1284 27.0207 37.9761 27.4715 36.6102C27.8468 35.4728 28.0746 34.2012 28.1412 32.8923H31.1463C31.5909 32.8923 31.9511 32.5319 31.9511 32.0875V29.5741C32.4356 29.4563 32.8972 29.3253 33.3315 29.1817C36.5534 28.1163 37.2298 26.7254 37.2298 25.7463C37.2298 25.0865 36.9097 24.111 35.3854 23.2105C34.4952 22.6848 33.2716 22.2312 31.8245 21.8884C31.6698 20.7384 31.3742 19.5774 30.9395 18.4185C30.4078 17.0005 29.668 15.5828 28.741 14.2047C27.1665 11.8643 25.603 10.4519 25.5372 10.393C25.3836 10.2552 25.1917 10.1875 25.0004 10.1875C24.8071 10.1875 24.6145 10.2567 24.4628 10.393ZM25.0004 12.1203C25.5419 12.6804 26.4223 13.6641 27.3138 14.9681H22.6864C23.5748 13.6688 24.4577 12.6823 25.0004 12.1203ZM19.6585 26.0425V23.755C19.6585 20.9908 20.6307 18.4864 21.6905 16.5776H28.3094C29.3716 18.4902 30.3416 20.9931 30.3416 23.755V26.0425C30.3416 26.487 30.7019 26.8474 31.1463 26.8474C31.5909 26.8474 31.9511 26.487 31.9511 26.0425V23.755C31.9511 23.6964 31.9504 23.6377 31.9499 23.5789C33.0185 23.8631 33.9116 24.2095 34.5667 24.5964C35.2362 24.9918 35.6202 25.4109 35.6202 25.7463C35.6202 26.2357 34.7562 27.0153 32.8261 27.6535C30.7476 28.3409 27.9682 28.7193 25 28.7193C22.0318 28.7193 19.2525 28.3409 17.174 27.6535C15.2439 27.0153 14.3799 26.2357 14.3799 25.7463C14.3799 25.4109 14.7638 24.9918 15.4333 24.5964C16.0883 24.2095 16.9815 23.8631 18.0501 23.579C18.0493 23.6377 18.0488 23.6964 18.0488 23.755V26.0425C18.0488 26.487 18.4092 26.8474 18.8537 26.8474C19.2981 26.8474 19.6585 26.487 19.6585 26.0425ZM30.3416 29.9038V31.2827H19.6585V29.9038C21.2965 30.1817 23.1162 30.329 25 30.329C26.8838 30.329 28.7034 30.1817 30.3416 29.9038ZM23.4704 32.8923H26.5296C26.4139 34.943 25.86 36.8192 24.9999 38.1009C24.1401 36.8192 23.5862 34.943 23.4704 32.8923Z" fill="white"/>
<path d="M66.296 35.1875V14.5795H70.888V35.1875H66.296ZM78.7 35.1875L72.708 26.3955H77.748L84.02 35.1875H78.7ZM69.656 28.6355V25.0235H74.696C75.368 25.0235 75.9467 24.8928 76.432 24.6315C76.936 24.3515 77.3187 23.9688 77.58 23.4835C77.86 22.9795 78 22.4008 78 21.7475C78 21.0942 77.86 20.5248 77.58 20.0395C77.3187 19.5355 76.936 19.1528 76.432 18.8915C75.9467 18.6115 75.368 18.4715 74.696 18.4715H69.656V14.5795H74.332C76.0307 14.5795 77.5053 14.8408 78.756 15.3635C80.0067 15.8675 80.968 16.6235 81.64 17.6315C82.312 18.6395 82.648 19.9088 82.648 21.4395V21.8875C82.648 23.3995 82.3027 24.6595 81.612 25.6675C80.94 26.6568 79.9787 27.4035 78.728 27.9075C77.496 28.3928 76.0307 28.6355 74.332 28.6355H69.656ZM95.7651 35.1875V30.6515H95.0091V25.7235C95.0091 24.9395 94.8225 24.3515 94.4491 23.9595C94.0758 23.5675 93.4785 23.3715 92.6571 23.3715C92.2465 23.3715 91.7051 23.3808 91.0331 23.3995C90.3611 23.4182 89.6705 23.4462 88.9611 23.4835C88.2518 23.5208 87.6078 23.5582 87.0291 23.5955V19.8155C87.4585 19.7782 87.9625 19.7408 88.5411 19.7035C89.1198 19.6662 89.7171 19.6382 90.3331 19.6195C90.9491 19.6008 91.5278 19.5915 92.0691 19.5915C93.6371 19.5915 94.9531 19.8155 96.0171 20.2635C97.0998 20.7115 97.9211 21.3928 98.4811 22.3075C99.0411 23.2035 99.3211 24.3608 99.3211 25.7795V35.1875H95.7651ZM90.8651 35.5795C89.7638 35.5795 88.7931 35.3835 87.9531 34.9915C87.1318 34.5995 86.4878 34.0395 86.0211 33.3115C85.5545 32.5648 85.3211 31.6782 85.3211 30.6515C85.3211 29.5315 85.6105 28.6168 86.1891 27.9075C86.7678 27.1795 87.5798 26.6475 88.6251 26.3115C89.6705 25.9568 90.8745 25.7795 92.2371 25.7795H95.5131V28.2715H92.2091C91.4251 28.2715 90.8185 28.4675 90.3891 28.8595C89.9785 29.2328 89.7731 29.7462 89.7731 30.3995C89.7731 31.0155 89.9785 31.5195 90.3891 31.9115C90.8185 32.2848 91.4251 32.4715 92.2091 32.4715C92.7131 32.4715 93.1611 32.3875 93.5531 32.2195C93.9638 32.0328 94.2998 31.7248 94.5611 31.2955C94.8225 30.8662 94.9718 30.2688 95.0091 29.5035L96.0731 30.6235C95.9798 31.6875 95.7185 32.5835 95.2891 33.3115C94.8785 34.0395 94.2998 34.5995 93.5531 34.9915C92.8251 35.3835 91.9291 35.5795 90.8651 35.5795ZM103.122 35.1875V19.8435H106.678V26.4235H106.426C106.426 24.8555 106.622 23.5488 107.014 22.5035C107.425 21.4582 108.041 20.6742 108.862 20.1515C109.683 19.6288 110.682 19.3675 111.858 19.3675H112.054C113.846 19.3675 115.209 19.9555 116.142 21.1315C117.094 22.2888 117.57 24.0528 117.57 26.4235V35.1875H113.09V26.1715C113.09 25.3502 112.847 24.6782 112.362 24.1555C111.877 23.6328 111.223 23.3715 110.402 23.3715C109.562 23.3715 108.881 23.6422 108.358 24.1835C107.854 24.7062 107.602 25.3968 107.602 26.2555V35.1875H103.122ZM132.196 35.1875L127.352 28.0195H125.196L131.44 19.8435H136.144L130.264 27.4595L130.32 25.2755L137.236 35.1875H132.196ZM121.388 35.1875V14.7475H125.868V35.1875H121.388ZM138.571 35.1875V30.1755H143.499V35.1875H138.571Z" fill="white"/>
<path d="M147.655 35.1875V19.8435H152.135V35.1875H147.655ZM145.611 23.1475V19.8435H152.135V23.1475H145.611ZM149.391 18.3315C148.551 18.3315 147.925 18.1168 147.515 17.6875C147.123 17.2395 146.927 16.6795 146.927 16.0075C146.927 15.3168 147.123 14.7568 147.515 14.3275C147.925 13.8795 148.551 13.6555 149.391 13.6555C150.231 13.6555 150.847 13.8795 151.239 14.3275C151.649 14.7568 151.855 15.3168 151.855 16.0075C151.855 16.6795 151.649 17.2395 151.239 17.6875C150.847 18.1168 150.231 18.3315 149.391 18.3315ZM163.754 35.7195C162.41 35.7195 161.216 35.5142 160.17 35.1035C159.125 34.6742 158.238 34.0955 157.51 33.3675C156.801 32.6395 156.26 31.8088 155.886 30.8755C155.513 29.9235 155.326 28.9248 155.326 27.8795V27.2355C155.326 26.1715 155.513 25.1635 155.886 24.2115C156.278 23.2408 156.838 22.3915 157.566 21.6635C158.313 20.9355 159.209 20.3662 160.254 19.9555C161.3 19.5262 162.466 19.3115 163.754 19.3115C165.08 19.3115 166.256 19.5262 167.282 19.9555C168.328 20.3662 169.214 20.9355 169.942 21.6635C170.67 22.3915 171.23 23.2408 171.622 24.2115C172.014 25.1635 172.21 26.1715 172.21 27.2355V27.8795C172.21 28.9248 172.024 29.9235 171.65 30.8755C171.277 31.8088 170.726 32.6395 169.998 33.3675C169.289 34.0955 168.412 34.6742 167.366 35.1035C166.321 35.5142 165.117 35.7195 163.754 35.7195ZM163.754 31.9395C164.632 31.9395 165.36 31.7528 165.938 31.3795C166.517 31.0062 166.956 30.4835 167.254 29.8115C167.572 29.1395 167.73 28.3928 167.73 27.5715C167.73 26.6942 167.572 25.9288 167.254 25.2755C166.937 24.6035 166.48 24.0715 165.882 23.6795C165.304 23.2875 164.594 23.0915 163.754 23.0915C162.933 23.0915 162.224 23.2875 161.626 23.6795C161.029 24.0715 160.572 24.6035 160.254 25.2755C159.956 25.9288 159.806 26.6942 159.806 27.5715C159.806 28.3928 159.956 29.1395 160.254 29.8115C160.553 30.4835 161.001 31.0062 161.598 31.3795C162.196 31.7528 162.914 31.9395 163.754 31.9395Z" fill="url(#paint1_linear_165_27234)"/>
<defs>
<linearGradient id="paint0_linear_165_27234" x1="50" y1="25.1875" x2="0" y2="25.1875" gradientUnits="userSpaceOnUse">
<stop stop-color="#725DA7"/>
<stop offset="1" stop-color="#E79D42"/>
</linearGradient>
<linearGradient id="paint1_linear_165_27234" x1="174" y1="25.1875" x2="64" y2="25.1875" gradientUnits="userSpaceOnUse">
<stop stop-color="#725DA7"/>
<stop offset="0.231874" stop-color="#E79D42"/>
</linearGradient>
</defs>
</svg>
