<svg width="30" height="30" viewBox="0 0 30 30" fill="none" xmlns="http://www.w3.org/2000/svg">
<g clip-path="url(#clip0_173_65)">
<path d="M3.21415 12.8572H5.357C5.64116 12.8572 5.91369 12.9701 6.11462 13.171C6.31555 13.3719 6.42843 13.6444 6.42843 13.9286V19.2857C6.42843 19.5699 6.31555 19.8424 6.11462 20.0434C5.91369 20.2443 5.64116 20.3572 5.357 20.3572H3.21415C2.64583 20.3572 2.10078 20.1314 1.69892 19.7295C1.29705 19.3277 1.07129 18.7826 1.07129 18.2143V15C1.07129 14.4317 1.29705 13.8867 1.69892 13.4848C2.10078 13.0829 2.64583 12.8572 3.21415 12.8572V12.8572Z" stroke="white" stroke-width="1.5" stroke-linecap="round" stroke-linejoin="round"/>
<path d="M26.7854 20.3572H24.6425C24.3583 20.3572 24.0858 20.2443 23.8849 20.0434C23.684 19.8424 23.5711 19.5699 23.5711 19.2857V13.9286C23.5711 13.6444 23.684 13.3719 23.8849 13.171C24.0858 12.9701 24.3583 12.8572 24.6425 12.8572H26.7854C27.3537 12.8572 27.8987 13.0829 28.3006 13.4848C28.7025 13.8867 28.9282 14.4317 28.9282 15V18.2143C28.9282 18.7826 28.7025 19.3277 28.3006 19.7295C27.8987 20.1314 27.3537 20.3572 26.7854 20.3572V20.3572Z" stroke="white" stroke-width="1.5" stroke-linecap="round" stroke-linejoin="round"/>
<path d="M20.3569 26.25C21.4936 26.25 22.5837 25.7985 23.3874 24.9948C24.1911 24.191 24.6426 23.101 24.6426 21.9643V20.3572" stroke="white" stroke-width="1.5" stroke-linecap="round" stroke-linejoin="round"/>
<path d="M17.6785 23.5714C18.3889 23.5714 19.0702 23.8536 19.5725 24.3559C20.0749 24.8583 20.3571 25.5396 20.3571 26.25C20.3571 26.9604 20.0749 27.6417 19.5725 28.144C19.0702 28.6463 18.3889 28.9286 17.6785 28.9286H14.4642C13.7538 28.9286 13.0725 28.6463 12.5702 28.144C12.0679 27.6417 11.7856 26.9604 11.7856 26.25C11.7856 25.5396 12.0679 24.8583 12.5702 24.3559C13.0725 23.8536 13.7538 23.5714 14.4642 23.5714H17.6785Z" stroke="white" stroke-width="1.5" stroke-linecap="round" stroke-linejoin="round"/>
<path d="M5.35693 12.8571V10.7143C5.35693 8.15682 6.37287 5.70412 8.18126 3.89574C9.98965 2.08735 12.4423 1.07141 14.9998 1.07141C17.5572 1.07141 20.0099 2.08735 21.8183 3.89574C23.6267 5.70412 24.6426 8.15682 24.6426 10.7143V12.8571" stroke="white" stroke-width="1.5" stroke-linecap="round" stroke-linejoin="round"/>
<path d="M11.7856 8.57141V11.7857" stroke="white" stroke-width="1.5" stroke-linecap="round" stroke-linejoin="round"/>
<path d="M18.2144 8.57141V11.7857" stroke="white" stroke-width="1.5" stroke-linecap="round" stroke-linejoin="round"/>
<path d="M11.7856 16.0714C11.7856 18.9214 18.2142 18.9214 18.2142 16.0714" stroke="white" stroke-width="1.5" stroke-linecap="round" stroke-linejoin="round"/>
</g>
<defs>
<clipPath id="clip0_173_65">
<rect width="30" height="30" fill="white"/>
</clipPath>
</defs>
</svg>
