<svg width="21" height="20" viewBox="0 0 21 20" fill="none" xmlns="http://www.w3.org/2000/svg">
<g clip-path="url(#clip0_165_26998)">
<path d="M20.677 11.1335C20.677 11.1334 20.677 11.1334 20.6769 11.1333L16.9008 1.65187C16.8207 1.45041 16.5923 1.35206 16.3909 1.4322C16.3907 1.43225 16.3906 1.4323 16.3904 1.4324L1.07138 7.53231C1.00891 7.5593 0.954726 7.60239 0.914337 7.65716C0.786936 7.72336 0.706452 7.85439 0.705078 7.99794V18.2057C0.705078 18.4225 0.880867 18.5983 1.09768 18.5983H17.5871C17.8039 18.5983 17.9797 18.4225 17.9797 18.2057V12.6307L20.4578 11.6437C20.6592 11.5633 20.7573 11.3349 20.677 11.1335ZM17.1945 17.8131H1.49029V8.39054H17.1945V17.8131ZM7.2557 7.6073L13.8295 4.98783C14.4162 5.60452 15.2291 5.95502 16.0803 5.95835L16.7359 7.6073H7.2557ZM17.9797 11.7874V7.99794C17.9797 7.78112 17.8039 7.60533 17.5871 7.60533H17.5808L16.7489 5.51589C16.7397 5.49847 16.7289 5.48188 16.7167 5.46642C16.6746 5.27733 16.4995 5.14831 16.3064 5.16411C15.5144 5.2363 14.7397 4.90269 14.248 4.27761C14.1257 4.12661 13.9106 4.08906 13.7443 4.18967C13.7256 4.19188 13.7071 4.19531 13.6889 4.19988L5.66329 7.39568C5.56617 7.43377 5.48848 7.50929 5.44775 7.60533H3.01046L16.3166 2.30712L19.8026 11.0603L17.9797 11.7874Z" fill="#E79D42"/>
<path d="M2.55583 15.1626C3.31808 15.3879 3.91454 15.9837 4.14078 16.7456C4.1904 16.9119 4.34336 17.0259 4.5169 17.0259C4.53726 17.0246 4.55748 17.0216 4.57736 17.0169C4.59498 17.0219 4.61299 17.0256 4.63114 17.0279H14.0537C14.0699 17.0258 14.0859 17.0225 14.1016 17.0181C14.2977 17.0658 14.4954 16.9455 14.5432 16.7493C14.5433 16.7486 14.5435 16.7479 14.5436 16.7472C14.7693 15.9844 15.3659 15.3879 16.1286 15.1622C16.3136 15.1057 16.4285 14.9214 16.3979 14.7304C16.4032 14.7113 16.4069 14.6919 16.4093 14.6723V11.5314C16.407 11.5117 16.4031 11.4923 16.3975 11.4733C16.4283 11.2823 16.3133 11.0978 16.1282 11.0414C15.3655 10.8158 14.769 10.219 14.544 9.4561C14.4872 9.26986 14.3011 9.15463 14.109 9.18677C14.0909 9.18172 14.0724 9.17804 14.0537 9.17578H4.63114C4.61137 9.17814 4.59179 9.18206 4.57265 9.18756C4.38169 9.15713 4.19746 9.27202 4.14078 9.45689C3.91498 10.2195 3.31847 10.8158 2.55583 11.0414C2.37087 11.098 2.25593 11.2823 2.28651 11.4733C2.2814 11.4924 2.27772 11.5118 2.27551 11.5314V14.6723C2.27777 14.6907 2.28145 14.709 2.28651 14.7268C2.25431 14.9191 2.36949 15.1054 2.55583 15.1626ZM3.06072 11.6908C3.84907 11.3742 4.47391 10.7493 4.79054 9.96099H13.8939C14.2107 10.7493 14.8356 11.3742 15.6241 11.6908V14.5129C14.836 14.8298 14.2113 15.4546 13.8943 16.2427H4.79054C4.47356 15.4546 3.84883 14.8298 3.06072 14.5129V11.6908Z" fill="#E79D42"/>
<path d="M9.34196 15.4574C10.643 15.4574 11.6976 14.4027 11.6976 13.1017C11.6976 11.8007 10.643 10.7461 9.34196 10.7461C8.04096 10.7461 6.98633 11.8007 6.98633 13.1017C6.9876 14.4022 8.0415 15.4561 9.34196 15.4574ZM9.34196 11.5313C10.2093 11.5313 10.9124 12.2344 10.9124 13.1017C10.9124 13.969 10.2093 14.6721 9.34196 14.6721C8.47465 14.6721 7.77154 13.969 7.77154 13.1017C7.77154 12.2344 8.47465 11.5313 9.34196 11.5313Z" fill="#E79D42"/>
<path d="M5.02445 13.6915C5.34968 13.6915 5.61336 13.4278 5.61336 13.1026C5.61336 12.7774 5.34968 12.5137 5.02445 12.5137C4.69923 12.5137 4.43555 12.7774 4.43555 13.1026C4.43555 13.4279 4.69923 13.6915 5.02445 13.6915ZM5.02445 12.9063C5.13286 12.9063 5.22076 12.9942 5.22076 13.1026C5.22076 13.211 5.13286 13.2989 5.02445 13.2989C4.91605 13.2989 4.82815 13.211 4.82815 13.1026C4.82815 12.9942 4.91605 12.9063 5.02445 12.9063Z" fill="#E79D42"/>
<path d="M13.6612 13.6915C13.9864 13.6915 14.2501 13.4278 14.2501 13.1026C14.2501 12.7774 13.9864 12.5137 13.6612 12.5137C13.3359 12.5137 13.0723 12.7774 13.0723 13.1026C13.0723 13.4279 13.3359 13.6915 13.6612 13.6915ZM13.6612 12.9063C13.7696 12.9063 13.8575 12.9942 13.8575 13.1026C13.8575 13.211 13.7696 13.2989 13.6612 13.2989C13.5528 13.2989 13.4649 13.211 13.4649 13.1026C13.4649 12.9942 13.5528 12.9063 13.6612 12.9063Z" fill="#E79D42"/>
</g>
<defs>
<clipPath id="clip0_165_26998">
<rect width="20" height="20" fill="white" transform="translate(0.705078)"/>
</clipPath>
</defs>
</svg>
