<svg width="21" height="20" viewBox="0 0 21 20" fill="none" xmlns="http://www.w3.org/2000/svg">
<g clip-path="url(#clip0_165_27321)">
<path d="M11.1714 9.85726C10.9596 9.94927 10.731 9.99675 10.5 9.99675C10.269 9.99675 10.0405 9.94927 9.82859 9.85726L1.68573 6.08583C1.5535 6.01914 1.44238 5.91705 1.36475 5.79094C1.28711 5.66483 1.246 5.51964 1.246 5.37155C1.246 5.22345 1.28711 5.07826 1.36475 4.95215C1.44238 4.82604 1.5535 4.72395 1.68573 4.65726L9.82859 0.857261C10.0405 0.765252 10.269 0.717773 10.5 0.717773C10.731 0.717773 10.9596 0.765252 11.1714 0.857261L19.3143 4.62869C19.4465 4.69538 19.5576 4.79747 19.6353 4.92358C19.7129 5.04969 19.754 5.19488 19.754 5.34298C19.754 5.49107 19.7129 5.63626 19.6353 5.76237C19.5576 5.88848 19.4465 5.99057 19.3143 6.05726L11.1714 9.85726Z" stroke="#E79D42" stroke-linecap="round" stroke-linejoin="round"/>
<path d="M19.7857 10.5L11.0714 14.5143C10.8853 14.5992 10.6831 14.6431 10.4786 14.6431C10.274 14.6431 10.0718 14.5992 9.88572 14.5143L1.21429 10.5" stroke="#E79D42" stroke-linecap="round" stroke-linejoin="round"/>
<path d="M19.7857 15.1431L11.0714 19.1574C10.8853 19.2422 10.6831 19.2862 10.4786 19.2862C10.274 19.2862 10.0718 19.2422 9.88572 19.1574L1.21429 15.1431" stroke="#E79D42" stroke-linecap="round" stroke-linejoin="round"/>
</g>
<defs>
<clipPath id="clip0_165_27321">
<rect width="20" height="20" fill="white" transform="translate(0.5)"/>
</clipPath>
</defs>
</svg>
