<svg width="30" height="30" viewBox="0 0 30 30" fill="none" xmlns="http://www.w3.org/2000/svg">
<g clip-path="url(#clip0_257_1704)">
<path d="M6.42941 28.9285C9.38808 28.9285 11.7866 26.53 11.7866 23.5714C11.7866 20.6127 9.38808 18.2142 6.42941 18.2142C3.47074 18.2142 1.07227 20.6127 1.07227 23.5714C1.07227 26.53 3.47074 28.9285 6.42941 28.9285Z" stroke="white" stroke-linecap="round" stroke-linejoin="round"/>
<path d="M11.7868 6.42854V3.21426C11.7868 2.64594 11.5611 2.10089 11.1592 1.69903C10.7573 1.29716 10.2123 1.0714 9.64397 1.0714H7.1154C6.61106 1.06223 6.11965 1.23127 5.72768 1.54877C5.3357 1.86626 5.0683 2.31186 4.97254 2.80711L1.17969 22.5" stroke="white" stroke-linecap="round" stroke-linejoin="round"/>
<path d="M9.64453 11.7856H20.3588" stroke="white" stroke-linecap="round" stroke-linejoin="round"/>
<path d="M11.7871 17.1428V23.5714" stroke="white" stroke-linecap="round" stroke-linejoin="round"/>
<path d="M23.572 28.9285C26.5307 28.9285 28.9291 26.53 28.9291 23.5714C28.9291 20.6127 26.5307 18.2142 23.572 18.2142C20.6133 18.2142 18.2148 20.6127 18.2148 23.5714C18.2148 26.53 20.6133 28.9285 23.572 28.9285Z" stroke="white" stroke-linecap="round" stroke-linejoin="round"/>
<path d="M18.2148 6.42854V3.21426C18.2148 2.64594 18.4406 2.10089 18.8425 1.69903C19.2443 1.29716 19.7894 1.0714 20.3577 1.0714H22.8863C23.3906 1.06223 23.882 1.23127 24.274 1.54877C24.666 1.86626 24.9334 2.31186 25.0291 2.80711L28.8648 22.5" stroke="white" stroke-linecap="round" stroke-linejoin="round"/>
<path d="M18.2148 17.1428V23.5714" stroke="white" stroke-linecap="round" stroke-linejoin="round"/>
</g>
<defs>
<clipPath id="clip0_257_1704">
<rect width="30" height="30" fill="white"/>
</clipPath>
</defs>
</svg>
