<svg width="21" height="20" viewBox="0 0 21 20" fill="none" xmlns="http://www.w3.org/2000/svg">
<path d="M13.3882 10.0562L9.84662 13.5977L8.02197 11.7731C7.77783 11.5289 7.38232 11.5289 7.13818 11.7731C6.89404 12.0172 6.89404 12.4127 7.13818 12.6569L9.40472 14.9234C9.52679 15.0455 9.68671 15.1065 9.84662 15.1065C10.0065 15.1065 10.1664 15.0455 10.2885 14.9234L14.272 10.9399C14.5161 10.6958 14.5161 10.3003 14.272 10.0562C14.0278 9.81201 13.6323 9.81201 13.3882 10.0562Z" fill="#E79D42"/>
<path d="M16.3301 2.47498H15.3926V1.875C15.3926 1.52985 15.1127 1.25 14.7676 1.25C14.4224 1.25 14.1426 1.52985 14.1426 1.875V2.47498H7.26758V1.875C7.26758 1.52985 6.98773 1.25 6.64258 1.25C6.29742 1.25 6.01758 1.52985 6.01758 1.875V2.47498H5.08008C3.35706 2.47498 1.95508 3.87695 1.95508 5.59998V15.625C1.95508 17.348 3.35706 18.75 5.08008 18.75H16.3301C18.0531 18.75 19.4551 17.348 19.4551 15.625V5.59998C19.4551 3.87695 18.0531 2.47498 16.3301 2.47498ZM3.20508 5.59998C3.20508 4.56604 4.04614 3.72498 5.08008 3.72498H6.01758V4.32465C6.01758 4.6698 6.29742 4.94965 6.64258 4.94965C6.98773 4.94965 7.26758 4.6698 7.26758 4.32465V3.72498H14.1426V4.32465C14.1426 4.6698 14.4224 4.94965 14.7676 4.94965C15.1127 4.94965 15.3926 4.6698 15.3926 4.32465V3.72498H16.3301C17.364 3.72498 18.2051 4.56604 18.2051 5.59998V6.23108H3.20508V5.59998ZM16.3301 17.5H5.08008C4.04614 17.5 3.20508 16.6589 3.20508 15.625V7.48108H18.2051V15.625C18.2051 16.6589 17.364 17.5 16.3301 17.5Z" fill="#E79D42"/>
</svg>
