<svg width="40" height="41" viewBox="0 0 40 41" fill="none" xmlns="http://www.w3.org/2000/svg">
<path d="M19.6286 27.5151C26.7294 27.5151 32.4858 21.7587 32.4858 14.6579C32.4858 7.55712 26.7294 1.80078 19.6286 1.80078C12.5278 1.80078 6.77148 7.55712 6.77148 14.6579C6.77148 21.7587 12.5278 27.5151 19.6286 27.5151Z" stroke="white" stroke-width="1.5" stroke-linecap="round" stroke-linejoin="round"/>
<path d="M19.6287 20.3724C22.7846 20.3724 25.343 17.814 25.343 14.6581C25.343 11.5022 22.7846 8.94385 19.6287 8.94385C16.4728 8.94385 13.9144 11.5022 13.9144 14.6581C13.9144 17.814 16.4728 20.3724 19.6287 20.3724Z" stroke="white" stroke-width="1.5" stroke-linecap="round" stroke-linejoin="round"/>
<path d="M17.1429 27.2866L14.6287 37.8581C14.5789 38.059 14.4869 38.247 14.3588 38.4095C14.2307 38.5721 14.0695 38.7055 13.8858 38.8009C13.6919 38.8851 13.4829 38.9285 13.2715 38.9285C13.0602 38.9285 12.8511 38.8851 12.6572 38.8009L3.17151 34.6581C2.97255 34.564 2.79747 34.4261 2.65943 34.2547C2.52138 34.0833 2.42396 33.8828 2.37447 33.6684C2.32499 33.4539 2.32472 33.2311 2.37369 33.0165C2.42266 32.8019 2.5196 32.6012 2.65723 32.4295L10.0001 23.2295" stroke="white" stroke-width="1.5" stroke-linecap="round" stroke-linejoin="round"/>
<path d="M22.8572 27.1437L25.4286 37.858C25.4797 38.0623 25.5754 38.2527 25.7088 38.4157C25.8421 38.5787 26.0099 38.7102 26.2 38.8008C26.3886 38.886 26.5931 38.9301 26.8 38.9301C27.0069 38.9301 27.2115 38.886 27.4 38.8008L36.8286 34.658C37.0306 34.565 37.2081 34.4262 37.3469 34.2526C37.4858 34.079 37.5823 33.8754 37.6286 33.658C37.6828 33.4452 37.6851 33.2227 37.6354 33.0089C37.5857 32.7951 37.4854 32.5964 37.3429 32.4294L29.6858 22.6865" stroke="white" stroke-width="1.5" stroke-linecap="round" stroke-linejoin="round"/>
</svg>
