<svg width="21" height="20" viewBox="0 0 21 20" fill="none" xmlns="http://www.w3.org/2000/svg">
<g clip-path="url(#clip0_165_27328)">
<path d="M6.92858 18.5714C10.0845 18.5714 12.6429 16.013 12.6429 12.8571C12.6429 9.7012 10.0845 7.14282 6.92858 7.14282C3.77267 7.14282 1.21429 9.7012 1.21429 12.8571C1.21429 16.013 3.77267 18.5714 6.92858 18.5714Z" stroke="#E79D42" stroke-linecap="round" stroke-linejoin="round"/>
<path d="M14.0715 18.5714C17.2274 18.5714 19.7857 16.013 19.7857 12.8571C19.7857 9.7012 17.2274 7.14282 14.0715 7.14282C10.9156 7.14282 8.35718 9.7012 8.35718 12.8571C8.35718 16.013 10.9156 18.5714 14.0715 18.5714Z" stroke="#E79D42" stroke-linecap="round" stroke-linejoin="round"/>
<path d="M10.5 12.857C13.6559 12.857 16.2143 10.2987 16.2143 7.14275C16.2143 3.98684 13.6559 1.42847 10.5 1.42847C7.34408 1.42847 4.78571 3.98684 4.78571 7.14275C4.78571 10.2987 7.34408 12.857 10.5 12.857Z" stroke="#E79D42" stroke-linecap="round" stroke-linejoin="round"/>
</g>
<defs>
<clipPath id="clip0_165_27328">
<rect width="20" height="20" fill="white" transform="translate(0.5)"/>
</clipPath>
</defs>
</svg>
