<svg width="30" height="30" viewBox="0 0 30 30" fill="none" xmlns="http://www.w3.org/2000/svg">
<path d="M9.64296 27.8572C14.3768 27.8572 18.2144 24.0197 18.2144 19.2858C18.2144 14.5519 14.3768 10.7144 9.64296 10.7144C4.90909 10.7144 1.07153 14.5519 1.07153 19.2858C1.07153 24.0197 4.90909 27.8572 9.64296 27.8572Z" stroke="white" stroke-linecap="round" stroke-linejoin="round"/>
<path d="M20.3573 27.8572C25.0912 27.8572 28.9287 24.0197 28.9287 19.2858C28.9287 14.5519 25.0912 10.7144 20.3573 10.7144C15.6234 10.7144 11.7859 14.5519 11.7859 19.2858C11.7859 24.0197 15.6234 27.8572 20.3573 27.8572Z" stroke="white" stroke-linecap="round" stroke-linejoin="round"/>
<path d="M15.0001 19.2857C19.734 19.2857 23.5716 15.4481 23.5716 10.7143C23.5716 5.98038 19.734 2.14282 15.0001 2.14282C10.2663 2.14282 6.42871 5.98038 6.42871 10.7143C6.42871 15.4481 10.2663 19.2857 15.0001 19.2857Z" stroke="white" stroke-linecap="round" stroke-linejoin="round"/>
</svg>
