<svg width="26" height="26" viewBox="0 0 26 26" fill="none" xmlns="http://www.w3.org/2000/svg">
<g clip-path="url(#clip0_258_2543)">
<path d="M21.0363 9.42829C21.0363 13.8747 13.0006 24.6069 13.0006 24.6069C13.0006 24.6069 4.96484 13.8747 4.96484 9.42829C4.96484 7.29709 5.81146 5.25317 7.31845 3.74618C8.82544 2.2392 10.8694 1.39258 13.0006 1.39258C15.1318 1.39258 17.1757 2.2392 18.6827 3.74618C20.1897 5.25317 21.0363 7.29709 21.0363 9.42829V9.42829Z" stroke="white" stroke-width="1.5" stroke-linecap="round" stroke-linejoin="round"/>
<path d="M13.0008 12.1071C14.4802 12.1071 15.6794 10.9079 15.6794 9.42857C15.6794 7.94924 14.4802 6.75 13.0008 6.75C11.5215 6.75 10.3223 7.94924 10.3223 9.42857C10.3223 10.9079 11.5215 12.1071 13.0008 12.1071Z" stroke="white" stroke-width="1.5" stroke-linecap="round" stroke-linejoin="round"/>
</g>
<defs>
<clipPath id="clip0_258_2543">
<rect width="25" height="25" fill="white" transform="translate(0.5 0.5)"/>
</clipPath>
</defs>
</svg>
