<svg width="25" height="25" viewBox="0 0 25 25" fill="none" xmlns="http://www.w3.org/2000/svg">
<g clip-path="url(#clip0_222_2186)">
<path d="M5.35735 24.1072C7.82291 24.1072 9.82164 22.1084 9.82164 19.6429C9.82164 17.1773 7.82291 15.1786 5.35735 15.1786C2.8918 15.1786 0.893066 17.1773 0.893066 19.6429C0.893066 22.1084 2.8918 24.1072 5.35735 24.1072Z" stroke="#E79D42" stroke-linecap="round" stroke-linejoin="round"/>
<path d="M9.82171 5.35716V2.67859C9.82171 2.20499 9.63357 1.75078 9.29868 1.4159C8.9638 1.08101 8.50959 0.892874 8.03599 0.892874H5.92885C5.50856 0.88523 5.09905 1.0261 4.77241 1.29068C4.44577 1.55526 4.22293 1.92659 4.14314 2.3393L0.982422 18.75" stroke="#E79D42" stroke-linecap="round" stroke-linejoin="round"/>
<path d="M8.03613 9.82147H16.9647" stroke="#E79D42" stroke-linecap="round" stroke-linejoin="round"/>
<path d="M9.82178 14.2857V19.6428" stroke="#E79D42" stroke-linecap="round" stroke-linejoin="round"/>
<path d="M19.643 24.1072C22.1086 24.1072 24.1073 22.1084 24.1073 19.6429C24.1073 17.1773 22.1086 15.1786 19.643 15.1786C17.1774 15.1786 15.1787 17.1773 15.1787 19.6429C15.1787 22.1084 17.1774 24.1072 19.643 24.1072Z" stroke="#E79D42" stroke-linecap="round" stroke-linejoin="round"/>
<path d="M15.1787 5.35716V2.67859C15.1787 2.20499 15.3668 1.75078 15.7017 1.4159C16.0366 1.08101 16.4908 0.892874 16.9644 0.892874H19.0716C19.4919 0.88523 19.9014 1.0261 20.228 1.29068C20.5546 1.55526 20.7775 1.92659 20.8573 2.3393L24.0537 18.75" stroke="#E79D42" stroke-linecap="round" stroke-linejoin="round"/>
<path d="M15.1787 14.2857V19.6428" stroke="#E79D42" stroke-linecap="round" stroke-linejoin="round"/>
</g>
<defs>
<clipPath id="clip0_222_2186">
<rect width="25" height="25" fill="white"/>
</clipPath>
</defs>
</svg>
