<svg width="21" height="20" viewBox="0 0 21 20" fill="none" xmlns="http://www.w3.org/2000/svg">
<g clip-path="url(#clip0_165_27009)">
<path d="M10.7051 20C16.2184 20 20.7051 15.5133 20.7051 10C20.7051 4.48668 16.2185 0 10.7051 0C5.1917 0 0.705078 4.48668 0.705078 10C0.705078 15.5133 5.19175 20 10.7051 20ZM10.7051 1.33331C15.4851 1.33331 19.3718 5.21996 19.3718 10C19.3718 14.78 15.4851 18.6667 10.7051 18.6667C5.92504 18.6667 2.03839 14.78 2.03839 10C2.03839 5.21996 5.9251 1.33331 10.7051 1.33331Z" fill="#E79D42"/>
<path d="M13.6204 13.1867C13.7438 13.2866 13.8904 13.3333 14.0371 13.3333C14.2338 13.3333 14.4271 13.2467 14.5571 13.0833C14.7871 12.7967 14.7404 12.3767 14.4538 12.1467L11.3704 9.67999V4.66666C11.3704 4.29998 11.0704 4 10.7038 4C10.3371 4 10.0371 4.29998 10.0371 4.66666V10C10.0371 10.2034 10.1305 10.3933 10.2871 10.52L13.6204 13.1867Z" fill="#E79D42"/>
</g>
<defs>
<clipPath id="clip0_165_27009">
<rect width="20" height="20" fill="white" transform="translate(0.705078)"/>
</clipPath>
</defs>
</svg>
