<svg width="25" height="25" viewBox="0 0 25 25" fill="none" xmlns="http://www.w3.org/2000/svg">
<path d="M9.33909 4.01782L10.1069 2.03568C10.2364 1.70008 10.4643 1.41141 10.7606 1.20749C11.0569 1.00356 11.4079 0.893885 11.7677 0.892822H13.2319C13.5917 0.893885 13.9427 1.00356 14.239 1.20749C14.5353 1.41141 14.7632 1.70008 14.8927 2.03568L15.6605 4.01782L18.2677 5.51782L20.3748 5.19639C20.7257 5.14877 21.0828 5.20653 21.4007 5.36233C21.7187 5.51813 21.9832 5.76494 22.1605 6.07139L22.8748 7.32139C23.0578 7.63273 23.1422 7.99225 23.1167 8.3525C23.0912 8.71275 22.957 9.05681 22.7319 9.33925L21.4284 11V14L22.7677 15.6607C22.9927 15.9431 23.1269 16.2872 23.1524 16.6474C23.1779 17.0077 23.0936 17.3672 22.9105 17.6785L22.1962 18.9285C22.0189 19.235 21.7544 19.4818 21.4364 19.6376C21.1185 19.7934 20.7614 19.8512 20.4105 19.8035L18.3034 19.4821L15.6962 20.9821L14.9284 22.9643C14.7989 23.2999 14.571 23.5885 14.2747 23.7924C13.9784 23.9964 13.6274 24.106 13.2677 24.1071H11.7677C11.4079 24.106 11.0569 23.9964 10.7606 23.7924C10.4643 23.5885 10.2364 23.2999 10.1069 22.9643L9.33909 20.9821L6.73195 19.4821L4.6248 19.8035C4.27394 19.8512 3.91684 19.7934 3.59888 19.6376C3.28092 19.4818 3.01645 19.235 2.83909 18.9285L2.1248 17.6785C1.94177 17.3672 1.85744 17.0077 1.88295 16.6474C1.90845 16.2872 2.04259 15.9431 2.26766 15.6607L3.57123 14V11L2.23195 9.33925C2.00688 9.05681 1.87274 8.71275 1.84723 8.3525C1.82173 7.99225 1.90606 7.63273 2.08909 7.32139L2.80338 6.07139C2.98074 5.76494 3.2452 5.51813 3.56317 5.36233C3.88113 5.20653 4.23823 5.14877 4.58909 5.19639L6.69623 5.51782L9.33909 4.01782ZM8.92838 12.5C8.92838 13.2063 9.13784 13.8968 9.53027 14.4841C9.9227 15.0715 10.4805 15.5292 11.1331 15.7995C11.7857 16.0698 12.5038 16.1406 13.1966 16.0028C13.8893 15.865 14.5257 15.5248 15.0252 15.0253C15.5247 14.5259 15.8648 13.8895 16.0026 13.1967C16.1404 12.5039 16.0697 11.7858 15.7994 11.1332C15.5291 10.4806 15.0713 9.92286 14.484 9.53043C13.8967 9.138 13.2062 8.92854 12.4998 8.92854C11.5526 8.92854 10.6442 9.30481 9.97442 9.97458C9.30465 10.6444 8.92838 11.5528 8.92838 12.5V12.5Z" stroke="#E79D42" stroke-linecap="round" stroke-linejoin="round"/>
</svg>
