<svg width="26" height="26" viewBox="0 0 26 26" fill="none" xmlns="http://www.w3.org/2000/svg">
<g clip-path="url(#clip0_222_9)">
<path d="M8.53592 23.7143C12.4808 23.7143 15.6788 20.5163 15.6788 16.5714C15.6788 12.6266 12.4808 9.42859 8.53592 9.42859C4.59103 9.42859 1.39307 12.6266 1.39307 16.5714C1.39307 20.5163 4.59103 23.7143 8.53592 23.7143Z" stroke="#E79D42" stroke-linecap="round" stroke-linejoin="round"/>
<path d="M17.4646 23.7143C21.4095 23.7143 24.6075 20.5163 24.6075 16.5714C24.6075 12.6266 21.4095 9.42859 17.4646 9.42859C13.5197 9.42859 10.3218 12.6266 10.3218 16.5714C10.3218 20.5163 13.5197 23.7143 17.4646 23.7143Z" stroke="#E79D42" stroke-linecap="round" stroke-linejoin="round"/>
<path d="M13.0003 16.5714C16.9452 16.5714 20.1431 13.3735 20.1431 9.42856C20.1431 5.48367 16.9452 2.28571 13.0003 2.28571C9.05539 2.28571 5.85742 5.48367 5.85742 9.42856C5.85742 13.3735 9.05539 16.5714 13.0003 16.5714Z" stroke="#E79D42" stroke-linecap="round" stroke-linejoin="round"/>
</g>
<defs>
<clipPath id="clip0_222_9">
<rect width="25" height="25" fill="white" transform="translate(0.5 0.5)"/>
</clipPath>
</defs>
</svg>
