<svg width="30" height="30" viewBox="0 0 30 30" fill="none" xmlns="http://www.w3.org/2000/svg">
<g clip-path="url(#clip0_384_2961)">
<path d="M18.8785 25.8644C17.9104 26.8324 16.7612 27.6003 15.4964 28.1242C14.2316 28.6481 12.876 28.9177 11.507 28.9177C8.74223 28.9177 6.09065 27.8194 4.13562 25.8644C2.1806 23.9094 1.08228 21.2578 1.08228 18.493C1.08228 15.7281 2.1806 13.0766 4.13562 11.1215L14.1856 1.07153L18.8785 5.76439L9.66419 15.0001C9.0719 15.7283 8.77069 16.6503 8.81881 17.5878C8.86693 18.5252 9.26097 19.4115 9.92472 20.0753C10.5885 20.739 11.4748 21.1331 12.4122 21.1812C13.3497 21.2293 14.2717 20.9281 14.9999 20.3358L24.2142 11.1215L28.9285 15.8144L18.8785 25.8644Z" stroke="white" stroke-linecap="round" stroke-linejoin="round"/>
<path d="M19.6929 15.6643L24.3857 20.3572" stroke="white" stroke-linecap="round" stroke-linejoin="round"/>
<path d="M9.64282 5.6145L14.3357 10.3074" stroke="white" stroke-linecap="round" stroke-linejoin="round"/>
</g>
<defs>
<clipPath id="clip0_384_2961">
<rect width="30" height="30" fill="white"/>
</clipPath>
</defs>
</svg>
