<svg width="26" height="26" viewBox="0 0 26 26" fill="none" xmlns="http://www.w3.org/2000/svg">
<g clip-path="url(#clip0_258_2498)">
<path d="M8.53544 24.2004C12.4803 24.2004 15.6783 21.0024 15.6783 17.0575C15.6783 13.1126 12.4803 9.91467 8.53544 9.91467C4.59054 9.91467 1.39258 13.1126 1.39258 17.0575C1.39258 21.0024 4.59054 24.2004 8.53544 24.2004Z" stroke="white" stroke-linecap="round" stroke-linejoin="round"/>
<path d="M17.4632 24.2004C21.4081 24.2004 24.606 21.0024 24.606 17.0575C24.606 13.1126 21.4081 9.91467 17.4632 9.91467C13.5183 9.91467 10.3203 13.1126 10.3203 17.0575C10.3203 21.0024 13.5183 24.2004 17.4632 24.2004Z" stroke="white" stroke-linecap="round" stroke-linejoin="round"/>
<path d="M13.0003 17.0576C16.9452 17.0576 20.1431 13.8596 20.1431 9.91471C20.1431 5.96982 16.9452 2.77185 13.0003 2.77185C9.05539 2.77185 5.85742 5.96982 5.85742 9.91471C5.85742 13.8596 9.05539 17.0576 13.0003 17.0576Z" stroke="white" stroke-linecap="round" stroke-linejoin="round"/>
</g>
<defs>
<clipPath id="clip0_258_2498">
<rect width="25" height="25" fill="white" transform="translate(0.5 0.986084)"/>
</clipPath>
</defs>
</svg>
