<svg width="30" height="30" viewBox="0 0 30 30" fill="none" xmlns="http://www.w3.org/2000/svg">
<path d="M9.64369 27.8571C14.3776 27.8571 18.2151 24.0195 18.2151 19.2857C18.2151 14.5518 14.3776 10.7142 9.64369 10.7142C4.90982 10.7142 1.07227 14.5518 1.07227 19.2857C1.07227 24.0195 4.90982 27.8571 9.64369 27.8571Z" stroke="white" stroke-linecap="round" stroke-linejoin="round"/>
<path d="M20.3585 27.8571C25.0924 27.8571 28.93 24.0195 28.93 19.2857C28.93 14.5518 25.0924 10.7142 20.3585 10.7142C15.6247 10.7142 11.7871 14.5518 11.7871 19.2857C11.7871 24.0195 15.6247 27.8571 20.3585 27.8571Z" stroke="white" stroke-linecap="round" stroke-linejoin="round"/>
<path d="M15.0011 19.2857C19.735 19.2857 23.5725 15.4481 23.5725 10.7143C23.5725 5.98038 19.735 2.14282 15.0011 2.14282C10.2672 2.14282 6.42969 5.98038 6.42969 10.7143C6.42969 15.4481 10.2672 19.2857 15.0011 19.2857Z" stroke="white" stroke-linecap="round" stroke-linejoin="round"/>
</svg>
