<svg width="26" height="26" viewBox="0 0 26 26" fill="none" xmlns="http://www.w3.org/2000/svg">
<g clip-path="url(#clip0_258_2535)">
<path d="M16.1418 23.7143C17.2415 24.4238 18.552 24.7329 19.8528 24.5898C21.1536 24.4468 22.3655 23.8601 23.2847 22.9286L24.0883 22.1429C24.4406 21.7825 24.6378 21.2986 24.6378 20.7947C24.6378 20.2907 24.4406 19.8068 24.0883 19.4465L20.6776 16.0715C20.3202 15.7203 19.8393 15.5235 19.3383 15.5235C18.8373 15.5235 18.3563 15.7203 17.999 16.0715V16.0715C17.6386 16.4238 17.1547 16.621 16.6508 16.621C16.1468 16.621 15.6629 16.4238 15.3026 16.0715L9.94541 10.7143C9.7667 10.5382 9.62478 10.3283 9.52792 10.0969C9.43105 9.86541 9.38117 9.61701 9.38117 9.3661C9.38117 9.1152 9.43105 8.8668 9.52792 8.63534C9.62478 8.40389 9.7667 8.194 9.94541 8.01789V8.01789C10.2966 7.66056 10.4934 7.1796 10.4934 6.6786C10.4934 6.1776 10.2966 5.69664 9.94541 5.33932L6.55255 1.94646C6.19221 1.59417 5.70828 1.39691 5.20434 1.39691C4.70039 1.39691 4.21647 1.59417 3.85612 1.94646L3.07041 2.75003C2.13888 3.66921 1.55225 4.88111 1.40916 6.18194C1.26607 7.48277 1.57524 8.7932 2.28469 9.89289C5.9812 15.3406 10.6846 20.0319 16.1418 23.7143V23.7143Z" stroke="white" stroke-width="1.5" stroke-linecap="round" stroke-linejoin="round"/>
</g>
<defs>
<clipPath id="clip0_258_2535">
<rect width="25" height="25" fill="white" transform="translate(0.5 0.5)"/>
</clipPath>
</defs>
</svg>
