<svg width="30" height="30" viewBox="0 0 30 30" fill="none" xmlns="http://www.w3.org/2000/svg">
<g clip-path="url(#clip0_384_2941)">
<path d="M6.42868 28.9286C9.38734 28.9286 11.7858 26.5302 11.7858 23.5715C11.7858 20.6128 9.38734 18.2144 6.42868 18.2144C3.47001 18.2144 1.07153 20.6128 1.07153 23.5715C1.07153 26.5302 3.47001 28.9286 6.42868 28.9286Z" stroke="white" stroke-linecap="round" stroke-linejoin="round"/>
<path d="M11.7859 6.42854V3.21426C11.7859 2.64594 11.5601 2.10089 11.1582 1.69903C10.7564 1.29716 10.2113 1.0714 9.643 1.0714H7.11442C6.61008 1.06223 6.11867 1.23127 5.7267 1.54877C5.33473 1.86626 5.06733 2.31186 4.97157 2.80711L1.17871 22.5" stroke="white" stroke-linecap="round" stroke-linejoin="round"/>
<path d="M9.64307 11.7856H20.3574" stroke="white" stroke-linecap="round" stroke-linejoin="round"/>
<path d="M11.7859 17.1428V23.5714" stroke="white" stroke-linecap="round" stroke-linejoin="round"/>
<path d="M23.5715 28.9286C26.5302 28.9286 28.9286 26.5302 28.9286 23.5715C28.9286 20.6128 26.5302 18.2144 23.5715 18.2144C20.6128 18.2144 18.2144 20.6128 18.2144 23.5715C18.2144 26.5302 20.6128 28.9286 23.5715 28.9286Z" stroke="white" stroke-linecap="round" stroke-linejoin="round"/>
<path d="M18.2144 6.42854V3.21426C18.2144 2.64594 18.4401 2.10089 18.842 1.69903C19.2438 1.29716 19.7889 1.0714 20.3572 1.0714H22.8858C23.3901 1.06223 23.8815 1.23127 24.2735 1.54877C24.6655 1.86626 24.9329 2.31186 25.0286 2.80711L28.8644 22.5" stroke="white" stroke-linecap="round" stroke-linejoin="round"/>
<path d="M18.2144 17.1428V23.5714" stroke="white" stroke-linecap="round" stroke-linejoin="round"/>
</g>
<defs>
<clipPath id="clip0_384_2941">
<rect width="30" height="30" fill="white"/>
</clipPath>
</defs>
</svg>
