<svg width="20" height="20" viewBox="0 0 20 20" fill="none" xmlns="http://www.w3.org/2000/svg">
<g clip-path="url(#clip0_757_28)">
<path d="M12.1429 7.14303C12.9318 7.14303 13.5714 6.50344 13.5714 5.71446C13.5714 4.92548 12.9318 4.28589 12.1429 4.28589C11.3539 4.28589 10.7143 4.92548 10.7143 5.71446C10.7143 6.50344 11.3539 7.14303 12.1429 7.14303Z" stroke="#E79D42" stroke-linecap="round" stroke-linejoin="round"/>
<path d="M6.42858 14.2857C6.82307 14.2857 7.14287 13.966 7.14287 13.5715C7.14287 13.177 6.82307 12.8572 6.42858 12.8572C6.03409 12.8572 5.71429 13.177 5.71429 13.5715C5.71429 13.966 6.03409 14.2857 6.42858 14.2857Z" stroke="#E79D42" stroke-linecap="round" stroke-linejoin="round"/>
<path d="M6.42857 9.28585C7.21755 9.28585 7.85714 8.64626 7.85714 7.85728C7.85714 7.0683 7.21755 6.42871 6.42857 6.42871C5.63959 6.42871 5 7.0683 5 7.85728C5 8.64626 5.63959 9.28585 6.42857 9.28585Z" stroke="#E79D42" stroke-linecap="round" stroke-linejoin="round"/>
<path d="M13.6 17.5429C13.5841 17.2658 13.4878 16.9994 13.3229 16.7761C13.158 16.5529 12.9316 16.3825 12.6714 16.2858C12.0253 16.0734 11.4761 15.6375 11.1226 15.0565C10.7691 14.4754 10.6345 13.7873 10.743 13.1159C10.8514 12.4444 11.1959 11.8337 11.7143 11.3935C12.2328 10.9533 12.8913 10.7125 13.5714 10.7144H16.2429C16.701 10.7156 17.1528 10.6067 17.5601 10.3967C17.9673 10.1868 18.3181 9.88195 18.5828 9.50798C18.8476 9.134 19.0185 8.70185 19.0811 8.24796C19.1438 7.79408 19.0964 7.33179 18.9429 6.90007C18.3747 5.29574 17.3765 3.87843 16.0573 2.803C14.7382 1.72756 13.1488 1.03536 11.4629 0.802033C9.77699 0.568705 8.05938 0.80322 6.49773 1.47996C4.93608 2.15669 3.59046 3.24962 2.60788 4.63932C1.62531 6.02903 1.04359 7.66205 0.926266 9.35998C0.808944 11.0579 1.16054 12.7554 1.94263 14.2671C2.72473 15.7787 3.90724 17.0463 5.36098 17.9314C6.81471 18.8165 8.48374 19.285 10.1857 19.2858C11.0262 19.2881 11.8629 19.1727 12.6714 18.9429C12.9684 18.8597 13.2255 18.6726 13.396 18.4156C13.5664 18.1586 13.6389 17.8489 13.6 17.5429V17.5429Z" stroke="#E79D42" stroke-linecap="round" stroke-linejoin="round"/>
</g>
<defs>
<clipPath id="clip0_757_28">
<rect width="20" height="20" fill="white"/>
</clipPath>
</defs>
</svg>
