<svg width="25" height="25" viewBox="0 0 25 25" fill="none" xmlns="http://www.w3.org/2000/svg">
<g clip-path="url(#clip0_222_2213)">
<path d="M15.1788 8.92848C16.165 8.92848 16.9645 8.12899 16.9645 7.14277C16.9645 6.15655 16.165 5.35706 15.1788 5.35706C14.1926 5.35706 13.3931 6.15655 13.3931 7.14277C13.3931 8.12899 14.1926 8.92848 15.1788 8.92848Z" stroke="#E79D42" stroke-linecap="round" stroke-linejoin="round"/>
<path d="M8.03592 17.8571C8.52903 17.8571 8.92878 17.4574 8.92878 16.9643C8.92878 16.4712 8.52903 16.0714 8.03592 16.0714C7.54281 16.0714 7.14307 16.4712 7.14307 16.9643C7.14307 17.4574 7.54281 17.8571 8.03592 17.8571Z" stroke="#E79D42" stroke-linecap="round" stroke-linejoin="round"/>
<path d="M8.03571 11.6071C9.02194 11.6071 9.82143 10.8076 9.82143 9.82136C9.82143 8.83514 9.02194 8.03564 8.03571 8.03564C7.04949 8.03564 6.25 8.83514 6.25 9.82136C6.25 10.8076 7.04949 11.6071 8.03571 11.6071Z" stroke="#E79D42" stroke-linecap="round" stroke-linejoin="round"/>
<path d="M17.0002 21.9285C16.9803 21.5822 16.8599 21.2491 16.6538 20.97C16.4476 20.6909 16.1647 20.478 15.8394 20.3571C15.0318 20.0917 14.3453 19.5468 13.9034 18.8205C13.4616 18.0941 13.2933 17.234 13.4289 16.3947C13.5644 15.5554 13.995 14.792 14.6431 14.2417C15.2911 13.6915 16.1143 13.3905 16.9644 13.3928H20.3037C20.8765 13.3944 21.4412 13.2582 21.9502 12.9958C22.4593 12.7333 22.8978 12.3523 23.2287 11.8849C23.5596 11.4174 23.7732 10.8772 23.8515 10.3098C23.9299 9.74248 23.8706 9.16461 23.6787 8.62497C22.9685 6.61956 21.7207 4.84792 20.0718 3.50362C18.4228 2.15932 16.4362 1.29408 14.3288 1.00242C12.2214 0.710759 10.0744 1.0039 8.12231 1.84982C6.17025 2.69574 4.48822 4.0619 3.26001 5.79903C2.03179 7.53616 1.30464 9.57745 1.15799 11.6999C1.01133 13.8223 1.45082 15.9442 2.42845 17.8337C3.40607 19.7233 4.88421 21.3078 6.70137 22.4141C8.51854 23.5205 10.6048 24.1062 12.7323 24.1071C13.7829 24.11 14.8288 23.9658 15.8394 23.6785C16.2106 23.5745 16.5321 23.3406 16.7451 23.0193C16.9582 22.6981 17.0487 22.311 17.0002 21.9285V21.9285Z" stroke="#E79D42" stroke-linecap="round" stroke-linejoin="round"/>
</g>
<defs>
<clipPath id="clip0_222_2213">
<rect width="25" height="25" fill="white"/>
</clipPath>
</defs>
</svg>
