<svg width="30" height="31" viewBox="0 0 30 31" fill="none" xmlns="http://www.w3.org/2000/svg">
<g clip-path="url(#clip0_165_26913)">
<path d="M27.8572 14.7153H19.2857C18.694 14.7153 18.2143 15.195 18.2143 15.7868V28.6439C18.2143 29.2356 18.694 29.7153 19.2857 29.7153H27.8572C28.4489 29.7153 28.9286 29.2356 28.9286 28.6439V15.7868C28.9286 15.195 28.4489 14.7153 27.8572 14.7153Z" stroke="white" stroke-width="1.5" stroke-linecap="round" stroke-linejoin="round"/>
<path d="M27.8572 1.8584H19.2857C18.694 1.8584 18.2143 2.33809 18.2143 2.92983V7.23697C18.2143 7.8287 18.694 8.3084 19.2857 8.3084H27.8572C28.4489 8.3084 28.9286 7.8287 28.9286 7.23697V2.92983C28.9286 2.33809 28.4489 1.8584 27.8572 1.8584Z" stroke="white" stroke-width="1.5" stroke-linecap="round" stroke-linejoin="round"/>
<path d="M10.7143 1.8584H2.14287C1.55114 1.8584 1.07144 2.33809 1.07144 2.92983V15.787C1.07144 16.3787 1.55114 16.8584 2.14287 16.8584H10.7143C11.306 16.8584 11.7857 16.3787 11.7857 15.787V2.92983C11.7857 2.33809 11.306 1.8584 10.7143 1.8584Z" stroke="white" stroke-width="1.5" stroke-linecap="round" stroke-linejoin="round"/>
<path d="M10.7143 23.2656H2.14287C1.55114 23.2656 1.07144 23.7453 1.07144 24.3371V28.6442C1.07144 29.2359 1.55114 29.7156 2.14287 29.7156H10.7143C11.306 29.7156 11.7857 29.2359 11.7857 28.6442V24.3371C11.7857 23.7453 11.306 23.2656 10.7143 23.2656Z" stroke="white" stroke-width="1.5" stroke-linecap="round" stroke-linejoin="round"/>
</g>
<defs>
<clipPath id="clip0_165_26913">
<rect width="30" height="30" fill="white" transform="translate(0 0.787109)"/>
</clipPath>
</defs>
</svg>
