<svg width="25" height="25" viewBox="0 0 25 25" fill="none" xmlns="http://www.w3.org/2000/svg">
<g clip-path="url(#clip0_222_2196)">
<path d="M15.1787 16.9643C15.6523 16.9643 16.1065 16.7762 16.4414 16.4413C16.7763 16.1064 16.9644 15.6522 16.9644 15.1786" stroke="#E79D42" stroke-linecap="round" stroke-linejoin="round"/>
<path d="M8.03516 16.9643H10.7137" stroke="#E79D42" stroke-linecap="round" stroke-linejoin="round"/>
<path d="M16.9639 8.03577V10.7143" stroke="#E79D42" stroke-linecap="round" stroke-linejoin="round"/>
<path d="M9.82087 8.03577C9.34727 8.03577 8.89307 8.2239 8.55818 8.55879C8.22329 8.89368 8.03516 9.34788 8.03516 9.82148" stroke="#E79D42" stroke-linecap="round" stroke-linejoin="round"/>
<path d="M0.892578 2.6786C0.892578 2.205 1.08072 1.75079 1.4156 1.41591C1.75049 1.08102 2.20469 0.892883 2.67829 0.892883H15.1783C15.6519 0.892883 16.1061 1.08102 16.441 1.41591C16.7759 1.75079 16.964 2.205 16.964 2.6786V8.03574H22.3211C22.7948 8.03574 23.249 8.22388 23.5838 8.55876C23.9187 8.89365 24.1069 9.34785 24.1069 9.82145V22.3215C24.1069 22.7951 23.9187 23.2493 23.5838 23.5841C23.249 23.919 22.7948 24.1072 22.3211 24.1072H9.82115C9.34755 24.1072 8.89335 23.919 8.55846 23.5841C8.22357 23.2493 8.03544 22.7951 8.03544 22.3215V16.9643H2.67829C2.20469 16.9643 1.75049 16.7762 1.4156 16.4413C1.08072 16.1064 0.892578 15.6522 0.892578 15.1786V2.6786Z" stroke="#E79D42" stroke-linecap="round" stroke-linejoin="round"/>
<path d="M14.2852 8.03577H16.9637" stroke="#E79D42" stroke-linecap="round" stroke-linejoin="round"/>
<path d="M8.03516 14.2858V16.9643" stroke="#E79D42" stroke-linecap="round" stroke-linejoin="round"/>
</g>
<defs>
<clipPath id="clip0_222_2196">
<rect width="25" height="25" fill="white"/>
</clipPath>
</defs>
</svg>
