<svg width="51" height="50" viewBox="0 0 51 50" fill="none" xmlns="http://www.w3.org/2000/svg">
<circle cx="25.9016" cy="25" r="25" fill="url(#paint0_linear_165_27294)"/>
<path d="M23.1885 22.461C23.1886 23.957 24.4057 25.1741 25.9015 25.1741C26.6263 25.1741 27.3077 24.8918 27.82 24.3794C28.3325 23.867 28.6147 23.1857 28.6147 22.461C28.6147 20.965 27.3977 19.748 25.9016 19.748C24.4056 19.748 23.1885 20.965 23.1885 22.461ZM24.7981 22.461C24.7981 21.8525 25.2932 21.3575 25.9016 21.3575C26.5101 21.3575 27.0052 21.8525 27.0052 22.461C27.0052 22.7557 26.8903 23.0329 26.682 23.2413C26.4735 23.4497 26.1963 23.5645 25.9016 23.5644C25.2932 23.5644 24.7981 23.0695 24.7981 22.461Z" fill="white"/>
<path d="M25.3644 10.2055C25.3637 10.2063 25.3602 10.2092 25.3592 10.2102C25.2417 10.3162 23.7065 11.7193 22.1607 14.0172C21.2336 15.3953 20.4938 16.813 19.9621 18.231C19.5274 19.3899 19.2318 20.5509 19.0772 21.7009C17.6301 22.0437 16.4064 22.4973 15.5163 23.023C13.9918 23.9235 13.6718 24.899 13.6718 25.5588C13.6718 26.5379 14.3483 27.9288 17.5702 28.9942C18.0045 29.1378 18.466 29.2688 18.9505 29.3866V31.9C18.9505 32.3444 19.3108 32.7048 19.7553 32.7048H22.7604C22.827 34.0137 23.0549 35.2853 23.4301 36.4227C23.8809 37.7886 24.5356 38.9409 25.3232 39.755C25.4748 39.9116 25.6835 40 25.9016 40C26.1196 40 26.3284 39.9116 26.4799 39.755C27.2676 38.9409 27.9223 37.7886 28.3731 36.4227C28.7484 35.2853 28.9762 34.0137 29.0428 32.7048H32.0479C32.4925 32.7048 32.8527 32.3444 32.8527 31.9V29.3866C33.3373 29.2688 33.7988 29.1378 34.2331 28.9942C37.455 27.9288 38.1314 26.5379 38.1314 25.5588C38.1314 24.899 37.8113 23.9235 36.287 23.023C35.3968 22.4973 34.1732 22.0437 32.7261 21.7009C32.5714 20.5509 32.2758 19.3899 31.8411 18.231C31.3095 16.813 30.5697 15.3953 29.6426 14.0172C28.0681 11.6768 26.5046 10.2644 26.4388 10.2055C26.2852 10.0677 26.0933 10 25.902 10C25.7087 10 25.5161 10.0692 25.3644 10.2055ZM25.902 11.9328C26.4435 12.4929 27.3239 13.4766 28.2154 14.7806H23.588C24.4764 13.4813 25.3593 12.4948 25.902 11.9328ZM20.5601 25.855V23.5675C20.5601 20.8033 21.5323 18.2989 22.5922 16.3901H29.211C30.2733 18.3027 31.2432 20.8056 31.2432 23.5675V25.855C31.2432 26.2995 31.6035 26.6599 32.0479 26.6599C32.4925 26.6599 32.8527 26.2995 32.8527 25.855V23.5675C32.8527 23.5089 32.852 23.4502 32.8515 23.3914C33.9201 23.6756 34.8132 24.022 35.4683 24.4089C36.1378 24.8043 36.5218 25.2234 36.5218 25.5588C36.5218 26.0482 35.6578 26.8278 33.7277 27.466C31.6492 28.1534 28.8698 28.5318 25.9016 28.5318C22.9334 28.5318 20.1541 28.1534 18.0756 27.466C16.1455 26.8278 15.2815 26.0482 15.2815 25.5588C15.2815 25.2234 15.6654 24.8043 16.3349 24.4089C16.9899 24.022 17.8831 23.6756 18.9517 23.3915C18.9509 23.4502 18.9505 23.5089 18.9505 23.5675V25.855C18.9505 26.2995 19.3108 26.6599 19.7553 26.6599C20.1998 26.6599 20.5601 26.2995 20.5601 25.855ZM31.2432 29.7163V31.0952H20.5601V29.7163C22.1981 29.9942 24.0179 30.1415 25.9016 30.1415C27.7854 30.1415 29.605 29.9942 31.2432 29.7163ZM24.372 32.7048H27.4312C27.3155 34.7555 26.7616 36.6317 25.9016 37.9134C25.0417 36.6317 24.4878 34.7555 24.372 32.7048Z" fill="white"/>
<defs>
<linearGradient id="paint0_linear_165_27294" x1="50.9016" y1="25" x2="0.901611" y2="25" gradientUnits="userSpaceOnUse">
<stop stop-color="#725DA7"/>
<stop offset="1" stop-color="#E79D42"/>
</linearGradient>
</defs>
</svg>
