<svg width="175" height="50" viewBox="0 0 175 50" fill="none" xmlns="http://www.w3.org/2000/svg">
<circle cx="25.9016" cy="25" r="25" fill="url(#paint0_linear_165_27293)"/>
<path d="M23.1885 22.461C23.1886 23.957 24.4057 25.1741 25.9015 25.1741C26.6263 25.1741 27.3077 24.8918 27.82 24.3794C28.3325 23.867 28.6147 23.1857 28.6147 22.461C28.6147 20.965 27.3977 19.748 25.9016 19.748C24.4056 19.748 23.1885 20.965 23.1885 22.461ZM24.7981 22.461C24.7981 21.8525 25.2932 21.3575 25.9016 21.3575C26.5101 21.3575 27.0052 21.8525 27.0052 22.461C27.0052 22.7557 26.8903 23.0329 26.682 23.2413C26.4735 23.4497 26.1963 23.5645 25.9016 23.5644C25.2932 23.5644 24.7981 23.0695 24.7981 22.461Z" fill="white"/>
<path d="M25.3644 10.2055C25.3637 10.2063 25.3602 10.2092 25.3592 10.2102C25.2417 10.3162 23.7065 11.7193 22.1607 14.0172C21.2336 15.3953 20.4938 16.813 19.9621 18.231C19.5274 19.3899 19.2318 20.5509 19.0772 21.7009C17.6301 22.0437 16.4064 22.4973 15.5163 23.023C13.9918 23.9235 13.6718 24.899 13.6718 25.5588C13.6718 26.5379 14.3483 27.9288 17.5702 28.9942C18.0045 29.1378 18.466 29.2688 18.9505 29.3866V31.9C18.9505 32.3444 19.3108 32.7048 19.7553 32.7048H22.7604C22.827 34.0137 23.0549 35.2853 23.4301 36.4227C23.8809 37.7886 24.5356 38.9409 25.3232 39.755C25.4748 39.9116 25.6835 40 25.9016 40C26.1196 40 26.3284 39.9116 26.4799 39.755C27.2676 38.9409 27.9223 37.7886 28.3731 36.4227C28.7484 35.2853 28.9762 34.0137 29.0428 32.7048H32.0479C32.4925 32.7048 32.8527 32.3444 32.8527 31.9V29.3866C33.3373 29.2688 33.7988 29.1378 34.2331 28.9942C37.455 27.9288 38.1314 26.5379 38.1314 25.5588C38.1314 24.899 37.8113 23.9235 36.287 23.023C35.3968 22.4973 34.1732 22.0437 32.7261 21.7009C32.5714 20.5509 32.2758 19.3899 31.8411 18.231C31.3095 16.813 30.5697 15.3953 29.6426 14.0172C28.0681 11.6768 26.5046 10.2644 26.4388 10.2055C26.2852 10.0677 26.0933 10 25.902 10C25.7087 10 25.5161 10.0692 25.3644 10.2055ZM25.902 11.9328C26.4435 12.4929 27.3239 13.4766 28.2154 14.7806H23.588C24.4764 13.4813 25.3593 12.4948 25.902 11.9328ZM20.5601 25.855V23.5675C20.5601 20.8033 21.5323 18.2989 22.5922 16.3901H29.211C30.2733 18.3027 31.2432 20.8056 31.2432 23.5675V25.855C31.2432 26.2995 31.6035 26.6599 32.0479 26.6599C32.4925 26.6599 32.8527 26.2995 32.8527 25.855V23.5675C32.8527 23.5089 32.852 23.4502 32.8515 23.3914C33.9201 23.6756 34.8132 24.022 35.4683 24.4089C36.1378 24.8043 36.5218 25.2234 36.5218 25.5588C36.5218 26.0482 35.6578 26.8278 33.7277 27.466C31.6492 28.1534 28.8698 28.5318 25.9016 28.5318C22.9334 28.5318 20.1541 28.1534 18.0756 27.466C16.1455 26.8278 15.2815 26.0482 15.2815 25.5588C15.2815 25.2234 15.6654 24.8043 16.3349 24.4089C16.9899 24.022 17.8831 23.6756 18.9517 23.3915C18.9509 23.4502 18.9505 23.5089 18.9505 23.5675V25.855C18.9505 26.2995 19.3108 26.6599 19.7553 26.6599C20.1998 26.6599 20.5601 26.2995 20.5601 25.855ZM31.2432 29.7163V31.0952H20.5601V29.7163C22.1981 29.9942 24.0179 30.1415 25.9016 30.1415C27.7854 30.1415 29.605 29.9942 31.2432 29.7163ZM24.372 32.7048H27.4312C27.3155 34.7555 26.7616 36.6317 25.9016 37.9134C25.0417 36.6317 24.4878 34.7555 24.372 32.7048Z" fill="white"/>
<path d="M67.1976 35V14.392H71.7896V35H67.1976ZM79.6016 35L73.6096 26.208H78.6496L84.9216 35H79.6016ZM70.5576 28.448V24.836H75.5976C76.2696 24.836 76.8483 24.7053 77.3336 24.444C77.8376 24.164 78.2203 23.7813 78.4816 23.296C78.7616 22.792 78.9016 22.2133 78.9016 21.56C78.9016 20.9067 78.7616 20.3373 78.4816 19.852C78.2203 19.348 77.8376 18.9653 77.3336 18.704C76.8483 18.424 76.2696 18.284 75.5976 18.284H70.5576V14.392H75.2336C76.9323 14.392 78.4069 14.6533 79.6576 15.176C80.9083 15.68 81.8696 16.436 82.5416 17.444C83.2136 18.452 83.5496 19.7213 83.5496 21.252V21.7C83.5496 23.212 83.2043 24.472 82.5136 25.48C81.8416 26.4693 80.8803 27.216 79.6296 27.72C78.3976 28.2053 76.9323 28.448 75.2336 28.448H70.5576ZM96.6667 35V30.464H95.9107V25.536C95.9107 24.752 95.7241 24.164 95.3507 23.772C94.9774 23.38 94.3801 23.184 93.5587 23.184C93.1481 23.184 92.6067 23.1933 91.9347 23.212C91.2627 23.2307 90.5721 23.2587 89.8627 23.296C89.1534 23.3333 88.5094 23.3707 87.9307 23.408V19.628C88.3601 19.5907 88.8641 19.5533 89.4427 19.516C90.0214 19.4787 90.6187 19.4507 91.2347 19.432C91.8507 19.4133 92.4294 19.404 92.9707 19.404C94.5387 19.404 95.8547 19.628 96.9187 20.076C98.0014 20.524 98.8227 21.2053 99.3827 22.12C99.9427 23.016 100.223 24.1733 100.223 25.592V35H96.6667ZM91.7667 35.392C90.6654 35.392 89.6947 35.196 88.8547 34.804C88.0334 34.412 87.3894 33.852 86.9227 33.124C86.4561 32.3773 86.2227 31.4907 86.2227 30.464C86.2227 29.344 86.5121 28.4293 87.0907 27.72C87.6694 26.992 88.4814 26.46 89.5267 26.124C90.5721 25.7693 91.7761 25.592 93.1387 25.592H96.4147V28.084H93.1107C92.3267 28.084 91.7201 28.28 91.2907 28.672C90.8801 29.0453 90.6747 29.5587 90.6747 30.212C90.6747 30.828 90.8801 31.332 91.2907 31.724C91.7201 32.0973 92.3267 32.284 93.1107 32.284C93.6147 32.284 94.0627 32.2 94.4547 32.032C94.8654 31.8453 95.2014 31.5373 95.4627 31.108C95.7241 30.6787 95.8734 30.0813 95.9107 29.316L96.9747 30.436C96.8814 31.5 96.6201 32.396 96.1907 33.124C95.7801 33.852 95.2014 34.412 94.4547 34.804C93.7267 35.196 92.8307 35.392 91.7667 35.392ZM104.024 35V19.656H107.58V26.236H107.328C107.328 24.668 107.524 23.3613 107.916 22.316C108.326 21.2707 108.942 20.4867 109.764 19.964C110.585 19.4413 111.584 19.18 112.76 19.18H112.956C114.748 19.18 116.11 19.768 117.044 20.944C117.996 22.1013 118.472 23.8653 118.472 26.236V35H113.992V25.984C113.992 25.1627 113.749 24.4907 113.264 23.968C112.778 23.4453 112.125 23.184 111.304 23.184C110.464 23.184 109.782 23.4547 109.26 23.996C108.756 24.5187 108.504 25.2093 108.504 26.068V35H104.024ZM133.097 35L128.253 27.832H126.097L132.341 19.656H137.045L131.165 27.272L131.221 25.088L138.137 35H133.097ZM122.289 35V14.56H126.769V35H122.289ZM139.472 35V29.988H144.4V35H139.472Z" fill="white"/>
<path d="M148.556 35V19.656H153.036V35H148.556ZM146.512 22.96V19.656H153.036V22.96H146.512ZM150.292 18.144C149.452 18.144 148.827 17.9293 148.416 17.5C148.024 17.052 147.828 16.492 147.828 15.82C147.828 15.1293 148.024 14.5693 148.416 14.14C148.827 13.692 149.452 13.468 150.292 13.468C151.132 13.468 151.748 13.692 152.14 14.14C152.551 14.5693 152.756 15.1293 152.756 15.82C152.756 16.492 152.551 17.052 152.14 17.5C151.748 17.9293 151.132 18.144 150.292 18.144ZM164.656 35.532C163.312 35.532 162.117 35.3267 161.072 34.916C160.027 34.4867 159.14 33.908 158.412 33.18C157.703 32.452 157.161 31.6213 156.788 30.688C156.415 29.736 156.228 28.7373 156.228 27.692V27.048C156.228 25.984 156.415 24.976 156.788 24.024C157.18 23.0533 157.74 22.204 158.468 21.476C159.215 20.748 160.111 20.1787 161.156 19.768C162.201 19.3387 163.368 19.124 164.656 19.124C165.981 19.124 167.157 19.3387 168.184 19.768C169.229 20.1787 170.116 20.748 170.844 21.476C171.572 22.204 172.132 23.0533 172.524 24.024C172.916 24.976 173.112 25.984 173.112 27.048V27.692C173.112 28.7373 172.925 29.736 172.552 30.688C172.179 31.6213 171.628 32.452 170.9 33.18C170.191 33.908 169.313 34.4867 168.268 34.916C167.223 35.3267 166.019 35.532 164.656 35.532ZM164.656 31.752C165.533 31.752 166.261 31.5653 166.84 31.192C167.419 30.8187 167.857 30.296 168.156 29.624C168.473 28.952 168.632 28.2053 168.632 27.384C168.632 26.5067 168.473 25.7413 168.156 25.088C167.839 24.416 167.381 23.884 166.784 23.492C166.205 23.1 165.496 22.904 164.656 22.904C163.835 22.904 163.125 23.1 162.528 23.492C161.931 23.884 161.473 24.416 161.156 25.088C160.857 25.7413 160.708 26.5067 160.708 27.384C160.708 28.2053 160.857 28.952 161.156 29.624C161.455 30.296 161.903 30.8187 162.5 31.192C163.097 31.5653 163.816 31.752 164.656 31.752Z" fill="url(#paint1_linear_165_27293)"/>
<defs>
<linearGradient id="paint0_linear_165_27293" x1="50.9016" y1="25" x2="0.901611" y2="25" gradientUnits="userSpaceOnUse">
<stop stop-color="#725DA7"/>
<stop offset="1" stop-color="#E79D42"/>
</linearGradient>
<linearGradient id="paint1_linear_165_27293" x1="174.902" y1="25" x2="64.9016" y2="25" gradientUnits="userSpaceOnUse">
<stop offset="0.0431849" stop-color="#725DA7"/>
<stop offset="0.255548" stop-color="#E79D42"/>
</linearGradient>
</defs>
</svg>
